<svg width="494" height="100" viewBox="0 0 494 100" fill="none" xmlns="http://www.w3.org/2000/svg">
<rect width="494" height="100" fill="#F3F3F4"/>
<path d="M104.06 45.22C103.007 45.22 102.027 45.04 101.12 44.68C100.227 44.3067 99.44 43.7867 98.76 43.12C98.0933 42.4533 97.5733 41.68 97.2 40.8C96.8267 39.9067 96.64 38.9467 96.64 37.92C96.64 36.8933 96.8267 35.94 97.2 35.06C97.5733 34.1667 98.0933 33.3933 98.76 32.74C99.4267 32.0867 100.207 31.58 101.1 31.22C102.007 30.8467 102.987 30.66 104.04 30.66C105.16 30.66 106.153 30.84 107.02 31.2C107.9 31.56 108.667 32.0533 109.32 32.68L107.22 34.8C106.847 34.4 106.393 34.0867 105.86 33.86C105.34 33.6333 104.733 33.52 104.04 33.52C103.427 33.52 102.86 33.6267 102.34 33.84C101.833 34.04 101.393 34.3333 101.02 34.72C100.66 35.1067 100.373 35.5733 100.16 36.12C99.96 36.6667 99.86 37.2667 99.86 37.92C99.86 38.5867 99.96 39.1933 100.16 39.74C100.373 40.2867 100.66 40.7533 101.02 41.14C101.393 41.5267 101.833 41.8267 102.34 42.04C102.86 42.2533 103.427 42.36 104.04 42.36C104.76 42.36 105.387 42.2467 105.92 42.02C106.453 41.7933 106.913 41.48 107.3 41.08L109.42 43.2C108.74 43.8267 107.96 44.32 107.08 44.68C106.213 45.04 105.207 45.22 104.06 45.22ZM115.115 45.22C114.115 45.22 113.208 45 112.395 44.56C111.595 44.1067 110.961 43.4933 110.495 42.72C110.028 41.9467 109.795 41.08 109.795 40.12C109.795 39.16 110.028 38.3 110.495 37.54C110.961 36.78 111.595 36.18 112.395 35.74C113.195 35.2867 114.101 35.06 115.115 35.06C116.128 35.06 117.035 35.28 117.835 35.72C118.635 36.16 119.268 36.7667 119.735 37.54C120.201 38.3 120.435 39.16 120.435 40.12C120.435 41.08 120.201 41.9467 119.735 42.72C119.268 43.4933 118.635 44.1067 117.835 44.56C117.035 45 116.128 45.22 115.115 45.22ZM115.115 42.44C115.555 42.44 115.941 42.3467 116.275 42.16C116.608 41.96 116.861 41.6867 117.035 41.34C117.221 40.98 117.315 40.5733 117.315 40.12C117.315 39.6667 117.221 39.2733 117.035 38.94C116.848 38.5933 116.588 38.3267 116.255 38.14C115.935 37.94 115.555 37.84 115.115 37.84C114.688 37.84 114.308 37.94 113.975 38.14C113.641 38.3267 113.381 38.5933 113.195 38.94C113.008 39.2867 112.915 39.6867 112.915 40.14C112.915 40.58 113.008 40.98 113.195 41.34C113.381 41.6867 113.641 41.96 113.975 42.16C114.308 42.3467 114.688 42.44 115.115 42.44ZM128.178 45V39.46C128.178 38.9533 128.018 38.5467 127.698 38.24C127.391 37.92 126.998 37.76 126.518 37.76C126.185 37.76 125.891 37.8333 125.638 37.98C125.385 38.1133 125.185 38.3133 125.038 38.58C124.891 38.8333 124.818 39.1267 124.818 39.46L123.638 38.88C123.638 38.12 123.805 37.4533 124.138 36.88C124.471 36.3067 124.931 35.8667 125.518 35.56C126.118 35.24 126.791 35.08 127.538 35.08C128.258 35.08 128.891 35.2533 129.438 35.6C129.998 35.9333 130.438 36.38 130.758 36.94C131.078 37.5 131.238 38.1133 131.238 38.78V45H128.178ZM121.758 45V35.28H124.818V45H121.758ZM136.543 45.24C135.97 45.24 135.403 45.1667 134.843 45.02C134.297 44.8733 133.783 44.6667 133.303 44.4C132.837 44.12 132.437 43.8 132.103 43.44L133.843 41.68C134.163 42.0267 134.543 42.3 134.983 42.5C135.423 42.6867 135.903 42.78 136.423 42.78C136.783 42.78 137.057 42.7267 137.243 42.62C137.443 42.5133 137.543 42.3667 137.543 42.18C137.543 41.94 137.423 41.76 137.183 41.64C136.957 41.5067 136.663 41.3933 136.303 41.3C135.943 41.1933 135.563 41.08 135.163 40.96C134.763 40.84 134.383 40.6733 134.023 40.46C133.663 40.2467 133.37 39.9533 133.143 39.58C132.917 39.1933 132.803 38.7067 132.803 38.12C132.803 37.4933 132.963 36.9533 133.283 36.5C133.603 36.0333 134.057 35.6667 134.643 35.4C135.23 35.1333 135.917 35 136.703 35C137.53 35 138.29 35.1467 138.983 35.44C139.69 35.72 140.263 36.14 140.703 36.7L138.963 38.46C138.657 38.1 138.31 37.8467 137.923 37.7C137.55 37.5533 137.183 37.48 136.823 37.48C136.477 37.48 136.217 37.5333 136.043 37.64C135.87 37.7333 135.783 37.8733 135.783 38.06C135.783 38.26 135.897 38.42 136.123 38.54C136.35 38.66 136.643 38.7667 137.003 38.86C137.363 38.9533 137.743 39.0667 138.143 39.2C138.543 39.3333 138.923 39.5133 139.283 39.74C139.643 39.9667 139.937 40.2733 140.163 40.66C140.39 41.0333 140.503 41.5267 140.503 42.14C140.503 43.0867 140.143 43.84 139.423 44.4C138.717 44.96 137.757 45.24 136.543 45.24ZM146.284 45.22C145.39 45.22 144.597 45.04 143.904 44.68C143.224 44.3067 142.69 43.8 142.304 43.16C141.917 42.5067 141.724 41.76 141.724 40.92V35.28H144.784V40.88C144.784 41.2133 144.837 41.5 144.944 41.74C145.064 41.98 145.237 42.1667 145.464 42.3C145.69 42.4333 145.964 42.5 146.284 42.5C146.737 42.5 147.097 42.36 147.364 42.08C147.63 41.7867 147.764 41.3867 147.764 40.88V35.28H150.824V40.9C150.824 41.7533 150.63 42.5067 150.244 43.16C149.857 43.8 149.324 44.3067 148.644 44.68C147.964 45.04 147.177 45.22 146.284 45.22ZM152.545 45V30.48H155.605V45H152.545ZM158.94 45V31.26H162V45H158.94ZM156.74 37.88V35.28H164.2V37.88H156.74ZM169.213 45.2C168.319 45.2 167.519 44.98 166.813 44.54C166.119 44.1 165.566 43.5 165.153 42.74C164.753 41.98 164.553 41.1133 164.553 40.14C164.553 39.1667 164.753 38.3 165.153 37.54C165.566 36.78 166.119 36.18 166.813 35.74C167.519 35.3 168.319 35.08 169.213 35.08C169.866 35.08 170.453 35.2067 170.973 35.46C171.506 35.7133 171.939 36.0667 172.273 36.52C172.606 36.96 172.793 37.4667 172.833 38.04V42.24C172.793 42.8133 172.606 43.3267 172.273 43.78C171.953 44.22 171.526 44.5667 170.993 44.82C170.459 45.0733 169.866 45.2 169.213 45.2ZM169.833 42.44C170.486 42.44 171.013 42.2267 171.413 41.8C171.813 41.36 172.013 40.8067 172.013 40.14C172.013 39.6867 171.919 39.2867 171.733 38.94C171.559 38.5933 171.306 38.3267 170.973 38.14C170.653 37.94 170.279 37.84 169.853 37.84C169.426 37.84 169.046 37.94 168.713 38.14C168.393 38.3267 168.133 38.5933 167.933 38.94C167.746 39.2867 167.653 39.6867 167.653 40.14C167.653 40.58 167.746 40.9733 167.933 41.32C168.119 41.6667 168.379 41.94 168.713 42.14C169.046 42.34 169.419 42.44 169.833 42.44ZM171.893 45V42.38L172.353 40.02L171.893 37.66V35.28H174.893V45H171.893ZM183.267 45V39.46C183.267 38.9533 183.107 38.5467 182.787 38.24C182.481 37.92 182.087 37.76 181.607 37.76C181.274 37.76 180.981 37.8333 180.727 37.98C180.474 38.1133 180.274 38.3133 180.127 38.58C179.981 38.8333 179.907 39.1267 179.907 39.46L178.727 38.88C178.727 38.12 178.894 37.4533 179.227 36.88C179.561 36.3067 180.021 35.8667 180.607 35.56C181.207 35.24 181.881 35.08 182.627 35.08C183.347 35.08 183.981 35.2533 184.527 35.6C185.087 35.9333 185.527 36.38 185.847 36.94C186.167 37.5 186.327 38.1133 186.327 38.78V45H183.267ZM176.847 45V35.28H179.907V45H176.847ZM189.355 45V31.26H192.415V45H189.355ZM187.155 37.88V35.28H194.615V37.88H187.155Z" fill="#161518"/>
<path d="M100.832 65.488L96.464 58.896H98.208L101.728 64.288H100.944L104.48 58.896H106.192L101.792 65.488H100.832ZM100.576 70V64.496H102.08V70H100.576ZM108.809 70.16C108.063 70.16 107.391 69.984 106.793 69.632C106.196 69.28 105.721 68.8053 105.369 68.208C105.017 67.6 104.841 66.9227 104.841 66.176C104.841 65.44 105.017 64.7787 105.369 64.192C105.721 63.5947 106.196 63.12 106.793 62.768C107.391 62.416 108.063 62.24 108.809 62.24C109.545 62.24 110.212 62.416 110.809 62.768C111.417 63.1093 111.897 63.5787 112.249 64.176C112.601 64.7733 112.777 65.44 112.777 66.176C112.777 66.9227 112.601 67.6 112.249 68.208C111.897 68.8053 111.417 69.28 110.809 69.632C110.212 69.984 109.545 70.16 108.809 70.16ZM108.809 68.768C109.289 68.768 109.716 68.656 110.089 68.432C110.463 68.208 110.756 67.904 110.969 67.52C111.183 67.1253 111.289 66.6773 111.289 66.176C111.289 65.6853 111.177 65.248 110.953 64.864C110.74 64.48 110.447 64.1813 110.073 63.968C109.711 63.744 109.289 63.632 108.809 63.632C108.329 63.632 107.903 63.744 107.529 63.968C107.156 64.1813 106.863 64.48 106.649 64.864C106.436 65.248 106.329 65.6853 106.329 66.176C106.329 66.6773 106.436 67.1253 106.649 67.52C106.863 67.904 107.156 68.208 107.529 68.432C107.903 68.656 108.329 68.768 108.809 68.768ZM117.456 70.16C116.837 70.16 116.277 70.0213 115.776 69.744C115.285 69.456 114.901 69.0613 114.624 68.56C114.346 68.0587 114.208 67.4773 114.208 66.816V62.4H115.648V66.752C115.648 67.168 115.717 67.5307 115.856 67.84C116.005 68.1387 116.218 68.368 116.496 68.528C116.773 68.688 117.098 68.768 117.472 68.768C118.037 68.768 118.48 68.592 118.8 68.24C119.12 67.8773 119.28 67.3813 119.28 66.752V62.4H120.72V66.816C120.72 67.4773 120.581 68.0587 120.304 68.56C120.026 69.0613 119.642 69.456 119.152 69.744C118.672 70.0213 118.106 70.16 117.456 70.16ZM129.194 70.16C128.49 70.16 127.861 69.9893 127.306 69.648C126.751 69.296 126.309 68.8213 125.978 68.224C125.658 67.6267 125.498 66.9547 125.498 66.208C125.498 65.4613 125.658 64.7893 125.978 64.192C126.309 63.5947 126.751 63.12 127.306 62.768C127.861 62.416 128.49 62.24 129.194 62.24C129.759 62.24 130.271 62.3627 130.73 62.608C131.189 62.8427 131.557 63.1733 131.834 63.6C132.122 64.016 132.282 64.5013 132.314 65.056V67.344C132.282 67.888 132.127 68.3733 131.85 68.8C131.573 69.2267 131.205 69.5627 130.746 69.808C130.287 70.0427 129.77 70.16 129.194 70.16ZM129.434 68.8C129.914 68.8 130.33 68.688 130.682 68.464C131.045 68.24 131.327 67.936 131.53 67.552C131.733 67.1573 131.834 66.7093 131.834 66.208C131.834 65.6853 131.727 65.232 131.514 64.848C131.311 64.464 131.029 64.16 130.666 63.936C130.314 63.712 129.898 63.6 129.418 63.6C128.938 63.6 128.517 63.712 128.154 63.936C127.791 64.16 127.503 64.4693 127.29 64.864C127.087 65.248 126.986 65.6907 126.986 66.192C126.986 66.704 127.087 67.1573 127.29 67.552C127.503 67.936 127.791 68.24 128.154 68.464C128.527 68.688 128.954 68.8 129.434 68.8ZM133.194 70H131.738V67.952L132.01 66.096L131.738 64.256V58.576H133.194V70ZM138.81 70.16C138.053 70.16 137.37 69.9893 136.762 69.648C136.154 69.296 135.674 68.8213 135.322 68.224C134.97 67.6267 134.794 66.9493 134.794 66.192C134.794 65.4453 134.965 64.7733 135.306 64.176C135.658 63.5787 136.128 63.1093 136.714 62.768C137.312 62.416 137.978 62.24 138.714 62.24C139.418 62.24 140.037 62.4 140.57 62.72C141.114 63.04 141.536 63.4827 141.834 64.048C142.144 64.6133 142.298 65.2533 142.298 65.968C142.298 66.0747 142.293 66.192 142.282 66.32C142.272 66.4373 142.25 66.576 142.218 66.736H135.802V65.536H141.45L140.922 66C140.922 65.488 140.832 65.056 140.65 64.704C140.469 64.3413 140.213 64.064 139.882 63.872C139.552 63.6693 139.152 63.568 138.682 63.568C138.192 63.568 137.76 63.6747 137.386 63.888C137.013 64.1013 136.725 64.4 136.522 64.784C136.32 65.168 136.218 65.6213 136.218 66.144C136.218 66.6773 136.325 67.1467 136.538 67.552C136.752 67.9467 137.056 68.256 137.45 68.48C137.845 68.6933 138.298 68.8 138.81 68.8C139.237 68.8 139.626 68.7253 139.978 68.576C140.341 68.4267 140.65 68.2027 140.906 67.904L141.834 68.848C141.472 69.2747 141.024 69.6 140.49 69.824C139.968 70.048 139.408 70.16 138.81 70.16ZM146.352 70L142.864 62.4H144.464L147.264 68.816H146.336L149.152 62.4H150.688L147.2 70H146.352ZM155.139 70.16C154.381 70.16 153.699 69.9893 153.091 69.648C152.483 69.296 152.003 68.8213 151.651 68.224C151.299 67.6267 151.123 66.9493 151.123 66.192C151.123 65.4453 151.293 64.7733 151.635 64.176C151.987 63.5787 152.456 63.1093 153.043 62.768C153.64 62.416 154.307 62.24 155.043 62.24C155.747 62.24 156.365 62.4 156.899 62.72C157.443 63.04 157.864 63.4827 158.163 64.048C158.472 64.6133 158.627 65.2533 158.627 65.968C158.627 66.0747 158.621 66.192 158.611 66.32C158.6 66.4373 158.579 66.576 158.547 66.736H152.131V65.536H157.779L157.251 66C157.251 65.488 157.16 65.056 156.979 64.704C156.797 64.3413 156.541 64.064 156.211 63.872C155.88 63.6693 155.48 63.568 155.011 63.568C154.52 63.568 154.088 63.6747 153.715 63.888C153.341 64.1013 153.053 64.4 152.851 64.784C152.648 65.168 152.547 65.6213 152.547 66.144C152.547 66.6773 152.653 67.1467 152.867 67.552C153.08 67.9467 153.384 68.256 153.779 68.48C154.173 68.6933 154.627 68.8 155.139 68.8C155.565 68.8 155.955 68.7253 156.307 68.576C156.669 68.4267 156.979 68.2027 157.235 67.904L158.163 68.848C157.8 69.2747 157.352 69.6 156.819 69.824C156.296 70.048 155.736 70.16 155.139 70.16ZM160.197 70V58.576H161.637V70H160.197ZM167.216 70.16C166.469 70.16 165.797 69.984 165.2 69.632C164.602 69.28 164.128 68.8053 163.776 68.208C163.424 67.6 163.248 66.9227 163.248 66.176C163.248 65.44 163.424 64.7787 163.776 64.192C164.128 63.5947 164.602 63.12 165.2 62.768C165.797 62.416 166.469 62.24 167.216 62.24C167.952 62.24 168.618 62.416 169.216 62.768C169.824 63.1093 170.304 63.5787 170.656 64.176C171.008 64.7733 171.184 65.44 171.184 66.176C171.184 66.9227 171.008 67.6 170.656 68.208C170.304 68.8053 169.824 69.28 169.216 69.632C168.618 69.984 167.952 70.16 167.216 70.16ZM167.216 68.768C167.696 68.768 168.122 68.656 168.496 68.432C168.869 68.208 169.162 67.904 169.376 67.52C169.589 67.1253 169.696 66.6773 169.696 66.176C169.696 65.6853 169.584 65.248 169.36 64.864C169.146 64.48 168.853 64.1813 168.48 63.968C168.117 63.744 167.696 63.632 167.216 63.632C166.736 63.632 166.309 63.744 165.936 63.968C165.562 64.1813 165.269 64.48 165.056 64.864C164.842 65.248 164.736 65.6853 164.736 66.176C164.736 66.6773 164.842 67.1253 165.056 67.52C165.269 67.904 165.562 68.208 165.936 68.432C166.309 68.656 166.736 68.768 167.216 68.768ZM176.806 70.16C176.23 70.16 175.707 70.0427 175.238 69.808C174.779 69.5627 174.411 69.2267 174.134 68.8C173.857 68.3733 173.702 67.888 173.67 67.344V65.056C173.702 64.5013 173.857 64.016 174.134 63.6C174.422 63.1733 174.795 62.8427 175.254 62.608C175.723 62.3627 176.241 62.24 176.806 62.24C177.499 62.24 178.123 62.416 178.678 62.768C179.243 63.12 179.686 63.5947 180.006 64.192C180.326 64.7893 180.486 65.4613 180.486 66.208C180.486 66.9547 180.326 67.6267 180.006 68.224C179.686 68.8213 179.243 69.296 178.678 69.648C178.123 69.9893 177.499 70.16 176.806 70.16ZM176.566 68.8C177.046 68.8 177.467 68.688 177.83 68.464C178.193 68.24 178.481 67.936 178.694 67.552C178.907 67.1573 179.014 66.704 179.014 66.192C179.014 65.6907 178.907 65.2427 178.694 64.848C178.481 64.4533 178.193 64.1493 177.83 63.936C177.467 63.712 177.051 63.6 176.582 63.6C176.102 63.6 175.681 63.712 175.318 63.936C174.955 64.1493 174.673 64.4533 174.47 64.848C174.267 65.2427 174.166 65.696 174.166 66.208C174.166 66.7093 174.262 67.1573 174.454 67.552C174.657 67.936 174.939 68.24 175.302 68.464C175.675 68.688 176.097 68.8 176.566 68.8ZM172.806 73.184V62.4H174.246V64.4L173.974 66.24L174.246 68.096V73.184H172.806ZM189.447 70.16C188.871 70.16 188.348 70.0427 187.879 69.808C187.42 69.5627 187.052 69.2267 186.775 68.8C186.497 68.3733 186.343 67.888 186.311 67.344V65.056C186.343 64.5013 186.497 64.016 186.775 63.6C187.063 63.1733 187.436 62.8427 187.895 62.608C188.364 62.3627 188.881 62.24 189.447 62.24C190.14 62.24 190.764 62.416 191.319 62.768C191.884 63.12 192.327 63.5947 192.647 64.192C192.967 64.7893 193.127 65.4613 193.127 66.208C193.127 66.9547 192.967 67.6267 192.647 68.224C192.327 68.8213 191.884 69.296 191.319 69.648C190.764 69.9893 190.14 70.16 189.447 70.16ZM189.207 68.8C189.687 68.8 190.108 68.688 190.471 68.464C190.833 68.24 191.121 67.936 191.335 67.552C191.548 67.1573 191.655 66.704 191.655 66.192C191.655 65.6907 191.548 65.2427 191.335 64.848C191.121 64.4533 190.833 64.1493 190.471 63.936C190.108 63.712 189.692 63.6 189.223 63.6C188.743 63.6 188.321 63.712 187.959 63.936C187.596 64.1493 187.313 64.4533 187.111 64.848C186.908 65.2427 186.807 65.696 186.807 66.208C186.807 66.7093 186.903 67.1573 187.095 67.552C187.297 67.936 187.58 68.24 187.943 68.464C188.316 68.688 188.737 68.8 189.207 68.8ZM185.447 73.184V62.4H186.887V64.4L186.615 66.24L186.887 68.096V73.184H185.447ZM194.759 70V62.4H196.199V70H194.759ZM196.199 65.664L195.655 65.424C195.655 64.4533 195.879 63.68 196.327 63.104C196.775 62.528 197.42 62.24 198.263 62.24C198.647 62.24 198.994 62.3093 199.303 62.448C199.612 62.576 199.9 62.7947 200.167 63.104L199.223 64.08C199.063 63.9093 198.887 63.7867 198.695 63.712C198.503 63.6373 198.279 63.6 198.023 63.6C197.49 63.6 197.052 63.7707 196.711 64.112C196.37 64.4533 196.199 64.9707 196.199 65.664ZM204.403 70.16C203.656 70.16 202.984 69.984 202.387 69.632C201.79 69.28 201.315 68.8053 200.963 68.208C200.611 67.6 200.435 66.9227 200.435 66.176C200.435 65.44 200.611 64.7787 200.963 64.192C201.315 63.5947 201.79 63.12 202.387 62.768C202.984 62.416 203.656 62.24 204.403 62.24C205.139 62.24 205.806 62.416 206.403 62.768C207.011 63.1093 207.491 63.5787 207.843 64.176C208.195 64.7733 208.371 65.44 208.371 66.176C208.371 66.9227 208.195 67.6 207.843 68.208C207.491 68.8053 207.011 69.28 206.403 69.632C205.806 69.984 205.139 70.16 204.403 70.16ZM204.403 68.768C204.883 68.768 205.31 68.656 205.683 68.432C206.056 68.208 206.35 67.904 206.563 67.52C206.776 67.1253 206.883 66.6773 206.883 66.176C206.883 65.6853 206.771 65.248 206.547 64.864C206.334 64.48 206.04 64.1813 205.667 63.968C205.304 63.744 204.883 63.632 204.403 63.632C203.923 63.632 203.496 63.744 203.123 63.968C202.75 64.1813 202.456 64.48 202.243 64.864C202.03 65.248 201.923 65.6853 201.923 66.176C201.923 66.6773 202.03 67.1253 202.243 67.52C202.456 67.904 202.75 68.208 203.123 68.432C203.496 68.656 203.923 68.768 204.403 68.768ZM213.994 70.16C213.418 70.16 212.895 70.0427 212.426 69.808C211.967 69.5627 211.599 69.2267 211.322 68.8C211.044 68.3733 210.89 67.888 210.858 67.344V65.056C210.89 64.5013 211.044 64.016 211.322 63.6C211.61 63.1733 211.983 62.8427 212.442 62.608C212.911 62.3627 213.428 62.24 213.994 62.24C214.687 62.24 215.311 62.416 215.866 62.768C216.431 63.12 216.874 63.5947 217.194 64.192C217.514 64.7893 217.674 65.4613 217.674 66.208C217.674 66.9547 217.514 67.6267 217.194 68.224C216.874 68.8213 216.431 69.296 215.866 69.648C215.311 69.9893 214.687 70.16 213.994 70.16ZM213.754 68.8C214.234 68.8 214.655 68.688 215.018 68.464C215.38 68.24 215.668 67.936 215.882 67.552C216.095 67.1573 216.202 66.704 216.202 66.192C216.202 65.6907 216.095 65.2427 215.882 64.848C215.668 64.4533 215.38 64.1493 215.018 63.936C214.655 63.712 214.239 63.6 213.77 63.6C213.29 63.6 212.868 63.712 212.506 63.936C212.143 64.1493 211.86 64.4533 211.658 64.848C211.455 65.2427 211.354 65.696 211.354 66.208C211.354 66.7093 211.45 67.1573 211.642 67.552C211.844 67.936 212.127 68.24 212.49 68.464C212.863 68.688 213.284 68.8 213.754 68.8ZM209.993 73.184V62.4H211.434V64.4L211.162 66.24L211.434 68.096V73.184H209.993ZM222.826 70.16C222.069 70.16 221.386 69.9893 220.778 69.648C220.17 69.296 219.69 68.8213 219.338 68.224C218.986 67.6267 218.81 66.9493 218.81 66.192C218.81 65.4453 218.981 64.7733 219.322 64.176C219.674 63.5787 220.143 63.1093 220.73 62.768C221.327 62.416 221.994 62.24 222.73 62.24C223.434 62.24 224.053 62.4 224.586 62.72C225.13 63.04 225.551 63.4827 225.85 64.048C226.159 64.6133 226.314 65.2533 226.314 65.968C226.314 66.0747 226.309 66.192 226.298 66.32C226.287 66.4373 226.266 66.576 226.234 66.736H219.818V65.536H225.466L224.938 66C224.938 65.488 224.847 65.056 224.666 64.704C224.485 64.3413 224.229 64.064 223.898 63.872C223.567 63.6693 223.167 63.568 222.698 63.568C222.207 63.568 221.775 63.6747 221.402 63.888C221.029 64.1013 220.741 64.4 220.538 64.784C220.335 65.168 220.234 65.6213 220.234 66.144C220.234 66.6773 220.341 67.1467 220.554 67.552C220.767 67.9467 221.071 68.256 221.466 68.48C221.861 68.6933 222.314 68.8 222.826 68.8C223.253 68.8 223.642 68.7253 223.994 68.576C224.357 68.4267 224.666 68.2027 224.922 67.904L225.85 68.848C225.487 69.2747 225.039 69.6 224.506 69.824C223.983 70.048 223.423 70.16 222.826 70.16ZM227.884 70V62.4H229.324V70H227.884ZM229.324 65.664L228.78 65.424C228.78 64.4533 229.004 63.68 229.452 63.104C229.9 62.528 230.545 62.24 231.388 62.24C231.772 62.24 232.119 62.3093 232.428 62.448C232.737 62.576 233.025 62.7947 233.292 63.104L232.348 64.08C232.188 63.9093 232.012 63.7867 231.82 63.712C231.628 63.6373 231.404 63.6 231.148 63.6C230.615 63.6 230.177 63.7707 229.836 64.112C229.495 64.4533 229.324 64.9707 229.324 65.664ZM235.443 70V59.216H236.883V70H235.443ZM233.571 63.712V62.4H238.755V63.712H233.571ZM240.181 70V62.4H241.621V70H240.181ZM240.901 60.88C240.635 60.88 240.416 60.7947 240.245 60.624C240.075 60.4427 239.989 60.2187 239.989 59.952C239.989 59.696 240.075 59.4827 240.245 59.312C240.416 59.1307 240.635 59.04 240.901 59.04C241.168 59.04 241.387 59.1307 241.557 59.312C241.728 59.4827 241.813 59.696 241.813 59.952C241.813 60.2187 241.728 60.4427 241.557 60.624C241.387 60.7947 241.168 60.88 240.901 60.88ZM247.264 70.16C246.506 70.16 245.824 69.9893 245.216 69.648C244.608 69.296 244.128 68.8213 243.776 68.224C243.424 67.6267 243.248 66.9493 243.248 66.192C243.248 65.4453 243.418 64.7733 243.76 64.176C244.112 63.5787 244.581 63.1093 245.168 62.768C245.765 62.416 246.432 62.24 247.168 62.24C247.872 62.24 248.49 62.4 249.024 62.72C249.568 63.04 249.989 63.4827 250.288 64.048C250.597 64.6133 250.752 65.2533 250.752 65.968C250.752 66.0747 250.746 66.192 250.736 66.32C250.725 66.4373 250.704 66.576 250.672 66.736H244.256V65.536H249.904L249.376 66C249.376 65.488 249.285 65.056 249.104 64.704C248.922 64.3413 248.666 64.064 248.336 63.872C248.005 63.6693 247.605 63.568 247.136 63.568C246.645 63.568 246.213 63.6747 245.84 63.888C245.466 64.1013 245.178 64.4 244.976 64.784C244.773 65.168 244.672 65.6213 244.672 66.144C244.672 66.6773 244.778 67.1467 244.992 67.552C245.205 67.9467 245.509 68.256 245.904 68.48C246.298 68.6933 246.752 68.8 247.264 68.8C247.69 68.8 248.08 68.7253 248.432 68.576C248.794 68.4267 249.104 68.2027 249.36 67.904L250.288 68.848C249.925 69.2747 249.477 69.6 248.944 69.824C248.421 70.048 247.861 70.16 247.264 70.16ZM254.738 70.16C254.311 70.16 253.906 70.1067 253.522 70C253.148 69.8827 252.802 69.7227 252.482 69.52C252.162 69.3067 251.884 69.056 251.65 68.768L252.578 67.84C252.855 68.1813 253.175 68.4373 253.538 68.608C253.9 68.768 254.306 68.848 254.754 68.848C255.202 68.848 255.548 68.7733 255.794 68.624C256.039 68.464 256.162 68.2453 256.162 67.968C256.162 67.6907 256.06 67.4773 255.858 67.328C255.666 67.168 255.415 67.04 255.106 66.944C254.796 66.8373 254.466 66.736 254.114 66.64C253.772 66.5333 253.447 66.4 253.138 66.24C252.828 66.08 252.572 65.8613 252.37 65.584C252.178 65.3067 252.082 64.9387 252.082 64.48C252.082 64.0213 252.194 63.6267 252.418 63.296C252.642 62.9547 252.951 62.6933 253.346 62.512C253.751 62.3307 254.236 62.24 254.802 62.24C255.399 62.24 255.927 62.3467 256.386 62.56C256.855 62.7627 257.239 63.072 257.538 63.488L256.61 64.416C256.396 64.1387 256.13 63.9253 255.81 63.776C255.5 63.6267 255.148 63.552 254.754 63.552C254.338 63.552 254.018 63.6267 253.794 63.776C253.58 63.9147 253.474 64.112 253.474 64.368C253.474 64.624 253.57 64.8213 253.762 64.96C253.954 65.0987 254.204 65.216 254.514 65.312C254.834 65.408 255.164 65.5093 255.506 65.616C255.847 65.712 256.172 65.8453 256.482 66.016C256.791 66.1867 257.042 66.416 257.234 66.704C257.436 66.992 257.538 67.3707 257.538 67.84C257.538 68.5547 257.282 69.12 256.77 69.536C256.268 69.952 255.591 70.16 254.738 70.16ZM259.23 71.76L260.222 69.856L260.734 69.728C260.68 69.8453 260.611 69.9413 260.526 70.016C260.451 70.0907 260.355 70.128 260.238 70.128C260.014 70.128 259.806 70.0373 259.614 69.856C259.432 69.664 259.342 69.4293 259.342 69.152C259.342 68.8427 259.443 68.5867 259.646 68.384C259.848 68.1707 260.104 68.064 260.414 68.064C260.691 68.064 260.936 68.1707 261.15 68.384C261.363 68.5867 261.47 68.8427 261.47 69.152C261.47 69.2693 261.443 69.4133 261.39 69.584C261.347 69.744 261.256 69.952 261.118 70.208L260.062 72.208L259.23 71.76ZM270.356 70.16C269.609 70.16 268.932 69.984 268.324 69.632C267.727 69.28 267.252 68.8053 266.9 68.208C266.559 67.6 266.388 66.928 266.388 66.192C266.388 65.4453 266.559 64.7733 266.9 64.176C267.252 63.5787 267.727 63.1093 268.324 62.768C268.932 62.416 269.609 62.24 270.356 62.24C270.943 62.24 271.487 62.352 271.988 62.576C272.489 62.7893 272.921 63.104 273.284 63.52L272.324 64.48C272.089 64.2027 271.801 63.9947 271.46 63.856C271.129 63.7067 270.761 63.632 270.356 63.632C269.876 63.632 269.449 63.744 269.076 63.968C268.703 64.1813 268.409 64.48 268.196 64.864C267.983 65.248 267.876 65.6907 267.876 66.192C267.876 66.6933 267.983 67.136 268.196 67.52C268.409 67.904 268.703 68.208 269.076 68.432C269.449 68.656 269.876 68.768 270.356 68.768C270.761 68.768 271.129 68.6987 271.46 68.56C271.801 68.4107 272.095 68.1973 272.34 67.92L273.284 68.88C272.932 69.2853 272.5 69.6 271.988 69.824C271.487 70.048 270.943 70.16 270.356 70.16ZM278.028 70.16C277.281 70.16 276.609 69.984 276.012 69.632C275.415 69.28 274.94 68.8053 274.588 68.208C274.236 67.6 274.06 66.9227 274.06 66.176C274.06 65.44 274.236 64.7787 274.588 64.192C274.94 63.5947 275.415 63.12 276.012 62.768C276.609 62.416 277.281 62.24 278.028 62.24C278.764 62.24 279.431 62.416 280.028 62.768C280.636 63.1093 281.116 63.5787 281.468 64.176C281.82 64.7733 281.996 65.44 281.996 66.176C281.996 66.9227 281.82 67.6 281.468 68.208C281.116 68.8053 280.636 69.28 280.028 69.632C279.431 69.984 278.764 70.16 278.028 70.16ZM278.028 68.768C278.508 68.768 278.935 68.656 279.308 68.432C279.681 68.208 279.975 67.904 280.188 67.52C280.401 67.1253 280.508 66.6773 280.508 66.176C280.508 65.6853 280.396 65.248 280.172 64.864C279.959 64.48 279.665 64.1813 279.292 63.968C278.929 63.744 278.508 63.632 278.028 63.632C277.548 63.632 277.121 63.744 276.748 63.968C276.375 64.1813 276.081 64.48 275.868 64.864C275.655 65.248 275.548 65.6853 275.548 66.176C275.548 66.6773 275.655 67.1253 275.868 67.52C276.081 67.904 276.375 68.208 276.748 68.432C277.121 68.656 277.548 68.768 278.028 68.768ZM288.995 70V65.568C288.995 64.992 288.813 64.5173 288.451 64.144C288.088 63.7707 287.619 63.584 287.043 63.584C286.659 63.584 286.317 63.6693 286.019 63.84C285.72 64.0107 285.485 64.2453 285.315 64.544C285.144 64.8427 285.059 65.184 285.059 65.568L284.467 65.232C284.467 64.656 284.595 64.144 284.851 63.696C285.107 63.248 285.464 62.896 285.923 62.64C286.381 62.3733 286.899 62.24 287.475 62.24C288.051 62.24 288.557 62.384 288.995 62.672C289.443 62.96 289.795 63.3387 290.051 63.808C290.307 64.2667 290.435 64.7573 290.435 65.28V70H288.995ZM283.618 70V62.4H285.059V70H283.618ZM294.8 70.16C294.373 70.16 293.968 70.1067 293.584 70C293.211 69.8827 292.864 69.7227 292.544 69.52C292.224 69.3067 291.947 69.056 291.712 68.768L292.64 67.84C292.917 68.1813 293.237 68.4373 293.6 68.608C293.963 68.768 294.368 68.848 294.816 68.848C295.264 68.848 295.611 68.7733 295.856 68.624C296.101 68.464 296.224 68.2453 296.224 67.968C296.224 67.6907 296.123 67.4773 295.92 67.328C295.728 67.168 295.477 67.04 295.168 66.944C294.859 66.8373 294.528 66.736 294.176 66.64C293.835 66.5333 293.509 66.4 293.2 66.24C292.891 66.08 292.635 65.8613 292.432 65.584C292.24 65.3067 292.144 64.9387 292.144 64.48C292.144 64.0213 292.256 63.6267 292.48 63.296C292.704 62.9547 293.013 62.6933 293.408 62.512C293.813 62.3307 294.299 62.24 294.864 62.24C295.461 62.24 295.989 62.3467 296.448 62.56C296.917 62.7627 297.301 63.072 297.6 63.488L296.672 64.416C296.459 64.1387 296.192 63.9253 295.872 63.776C295.563 63.6267 295.211 63.552 294.816 63.552C294.4 63.552 294.08 63.6267 293.856 63.776C293.643 63.9147 293.536 64.112 293.536 64.368C293.536 64.624 293.632 64.8213 293.824 64.96C294.016 65.0987 294.267 65.216 294.576 65.312C294.896 65.408 295.227 65.5093 295.568 65.616C295.909 65.712 296.235 65.8453 296.544 66.016C296.853 66.1867 297.104 66.416 297.296 66.704C297.499 66.992 297.6 67.3707 297.6 67.84C297.6 68.5547 297.344 69.12 296.832 69.536C296.331 69.952 295.653 70.16 294.8 70.16ZM302.268 70.16C301.65 70.16 301.09 70.0213 300.588 69.744C300.098 69.456 299.714 69.0613 299.436 68.56C299.159 68.0587 299.02 67.4773 299.02 66.816V62.4H300.46V66.752C300.46 67.168 300.53 67.5307 300.668 67.84C300.818 68.1387 301.031 68.368 301.308 68.528C301.586 68.688 301.911 68.768 302.284 68.768C302.85 68.768 303.292 68.592 303.612 68.24C303.932 67.8773 304.092 67.3813 304.092 66.752V62.4H305.532V66.816C305.532 67.4773 305.394 68.0587 305.116 68.56C304.839 69.0613 304.455 69.456 303.964 69.744C303.484 70.0213 302.919 70.16 302.268 70.16ZM307.462 70V58.576H308.902V70H307.462ZM312.177 70V59.216H313.617V70H312.177ZM310.305 63.712V62.4H315.489V63.712H310.305ZM323.748 70.16C322.991 70.16 322.308 69.9893 321.7 69.648C321.092 69.296 320.612 68.8213 320.26 68.224C319.908 67.6267 319.732 66.9493 319.732 66.192C319.732 65.4453 319.903 64.7733 320.244 64.176C320.596 63.5787 321.065 63.1093 321.652 62.768C322.249 62.416 322.916 62.24 323.652 62.24C324.356 62.24 324.975 62.4 325.508 62.72C326.052 63.04 326.473 63.4827 326.772 64.048C327.081 64.6133 327.236 65.2533 327.236 65.968C327.236 66.0747 327.231 66.192 327.22 66.32C327.209 66.4373 327.188 66.576 327.156 66.736H320.74V65.536H326.388L325.86 66C325.86 65.488 325.769 65.056 325.588 64.704C325.407 64.3413 325.151 64.064 324.82 63.872C324.489 63.6693 324.089 63.568 323.62 63.568C323.129 63.568 322.697 63.6747 322.324 63.888C321.951 64.1013 321.663 64.4 321.46 64.784C321.257 65.168 321.156 65.6213 321.156 66.144C321.156 66.6773 321.263 67.1467 321.476 67.552C321.689 67.9467 321.993 68.256 322.388 68.48C322.783 68.6933 323.236 68.8 323.748 68.8C324.175 68.8 324.564 68.7253 324.916 68.576C325.279 68.4267 325.588 68.2027 325.844 67.904L326.772 68.848C326.409 69.2747 325.961 69.6 325.428 69.824C324.905 70.048 324.345 70.16 323.748 70.16ZM329.74 70V59.216H331.18V70H329.74ZM327.868 63.712V62.4H333.052V63.712H327.868ZM337.7 70.16C336.953 70.16 336.276 69.984 335.668 69.632C335.071 69.28 334.596 68.8053 334.244 68.208C333.903 67.6 333.732 66.928 333.732 66.192C333.732 65.4453 333.903 64.7733 334.244 64.176C334.596 63.5787 335.071 63.1093 335.668 62.768C336.276 62.416 336.953 62.24 337.7 62.24C338.287 62.24 338.831 62.352 339.332 62.576C339.833 62.7893 340.265 63.104 340.628 63.52L339.668 64.48C339.433 64.2027 339.145 63.9947 338.804 63.856C338.473 63.7067 338.105 63.632 337.7 63.632C337.22 63.632 336.793 63.744 336.42 63.968C336.047 64.1813 335.753 64.48 335.54 64.864C335.327 65.248 335.22 65.6907 335.22 66.192C335.22 66.6933 335.327 67.136 335.54 67.52C335.753 67.904 336.047 68.208 336.42 68.432C336.793 68.656 337.22 68.768 337.7 68.768C338.105 68.768 338.473 68.6987 338.804 68.56C339.145 68.4107 339.439 68.1973 339.684 67.92L340.628 68.88C340.276 69.2853 339.844 69.6 339.332 69.824C338.831 70.048 338.287 70.16 337.7 70.16Z" fill="#565560"/>
<rect x="16" y="18" width="64" height="64" rx="10" fill="#3C003D"/>
<g clip-path="url(#clip0_524_8353)">
<path d="M48 52V54C46.4087 54 44.8826 54.6321 43.7574 55.7574C42.6321 56.8826 42 58.4087 42 60H40C40 57.8783 40.8429 55.8434 42.3431 54.3431C43.8434 52.8429 45.8783 52 48 52ZM48 51C44.685 51 42 48.315 42 45C42 41.685 44.685 39 48 39C51.315 39 54 41.685 54 45C54 48.315 51.315 51 48 51ZM48 49C50.21 49 52 47.21 52 45C52 42.79 50.21 41 48 41C45.79 41 44 42.79 44 45C44 47.21 45.79 49 48 49ZM56.828 59.071L54 62L51.172 59.071C49.609 57.453 49.609 54.831 51.172 53.213C51.5366 52.8298 51.9754 52.5248 52.4615 52.3163C52.9476 52.1079 53.4711 52.0004 54 52.0004C54.5289 52.0004 55.0524 52.1079 55.5385 52.3163C56.0246 52.5248 56.4633 52.8298 56.828 53.213C58.391 54.831 58.391 57.453 56.828 59.071ZM55.39 57.681C56.203 56.839 56.203 55.445 55.39 54.603C55.2119 54.4127 54.9966 54.2611 54.7575 54.1574C54.5184 54.0537 54.2606 54.0002 54 54.0002C53.7394 54.0002 53.4816 54.0537 53.2425 54.1574C53.0034 54.2611 52.7881 54.4127 52.61 54.603C51.797 55.445 51.797 56.839 52.61 57.682L54 59.12L55.39 57.68V57.681Z" fill="white"/>
</g>
<defs>
<clipPath id="clip0_524_8353">
<rect width="24" height="24" fill="white" transform="translate(36 38)"/>
</clipPath>
</defs>
</svg>
