<svg width="88" height="65" viewBox="0 0 88 65" fill="none" xmlns="http://www.w3.org/2000/svg">
<path d="M42.4531 5.02539L43.4336 5.51564L44.0464 5.88333L44.6593 5.51564L45.6398 5.02539V47.6772H42.4531V5.02539Z" fill="#FBFBFC"/>
<path d="M46.6172 9.06889L49.8038 7.7207V45.1023L46.6172 46.9408V9.06889Z" fill="#FBFBFC"/>
<path d="M41.4688 9.06889L38.2821 7.7207V45.1023L41.4688 46.9408V9.06889Z" fill="#FBFBFC"/>
<path d="M50.7812 14.8291L53.9679 13.6035V42.6509L50.7812 44.4893V14.8291Z" fill="#FBFBFC"/>
<path d="M37.3047 14.8291L34.1181 13.6035V42.6509L37.3047 44.4893V14.8291Z" fill="#FBFBFC"/>
<path d="M43.5547 0L44.5352 1.10306V6.12813H43.5547V0Z" fill="#FBFBFC"/>
<path d="M32.8902 31.1315V27.8223C32.8902 27.8223 26.5168 32.3571 25.4138 33.4601C24.3108 34.5632 24.8011 35.9109 25.4138 36.5242C26.0266 37.1376 34.1158 42.6523 34.1158 42.6523V39.098C34.1158 39.098 28.2322 36.2791 28.2322 34.8083C28.2322 33.9504 32.8902 31.1315 32.8902 31.1315Z" fill="#FBFBFC"/>
<path d="M55.1958 31.1315V27.8223C55.1958 27.8223 61.5691 32.3571 62.6721 33.4601C63.7751 34.5632 63.2848 35.9109 62.6721 36.5242C62.0594 37.1376 53.9702 42.6523 53.9702 42.6523V39.098C53.9702 39.098 59.8537 36.2791 59.8537 34.8083C59.8537 33.9504 55.1958 31.1315 55.1958 31.1315Z" fill="#FBFBFC"/>
<path d="M1.1239 64.3926V53.1536H6.02089C7.34816 53.1536 8.40249 53.4961 9.18387 54.1811C9.96524 54.8662 10.3559 55.7278 10.3559 56.7661C10.3559 57.5903 10.099 58.3182 9.58526 58.9497C9.08218 59.5705 8.37573 59.9933 7.46591 60.2181L10.2757 64.3926H8.10813L5.45894 60.3787H2.97031V64.3926H1.1239ZM2.97031 58.6125H6.02089C7.62646 58.6125 8.42925 57.9971 8.42925 56.7661C8.42925 55.5352 7.62646 54.9197 6.02089 54.9197H2.97031V58.6125ZM13.8148 64.3926V53.1536H21.9229V54.9197H15.6612V57.8097H20.7188V59.5759H15.6612V62.6264H21.9229V64.3926H13.8148ZM25.22 64.3926V53.1536H27.8692L32.7662 62.0645H32.9267L32.7662 60.6998V53.1536H34.6126V64.3926H31.9634L27.0664 55.4817H26.9059L27.0664 56.8464V64.3926H25.22ZM37.4964 54.9197V53.1536H46.7284V54.9197H43.0356V64.3926H41.1892V54.9197H37.4964ZM49.614 64.3926V53.1536H54.511C55.8383 53.1536 56.8926 53.4961 57.674 54.1811C58.4554 54.8662 58.8461 55.7278 58.8461 56.7661C58.8461 57.5903 58.5892 58.3182 58.0754 58.9497C57.5723 59.5705 56.8659 59.9933 55.956 60.2181L58.7658 64.3926H56.5983L53.9491 60.3787H51.4604V64.3926H49.614ZM51.4604 58.6125H54.511C56.1166 58.6125 56.9194 57.9971 56.9194 56.7661C56.9194 55.5352 56.1166 54.9197 54.511 54.9197H51.4604V58.6125ZM62.3049 64.3926V53.1536H64.1513V64.3926H62.3049ZM67.0395 54.9197V53.1536H76.2715V54.9197H72.5787V64.3926H70.7323V54.9197H67.0395ZM79.1572 64.3926V53.1536H87.2653V54.9197H81.0036V57.8097H86.0611V59.5759H81.0036V62.6264H87.2653V64.3926H79.1572Z" fill="#F3F3F4"/>
</svg>
