<svg width="88" height="66" viewBox="0 0 88 66" fill="none" xmlns="http://www.w3.org/2000/svg">
<path d="M42.4531 5.52502L43.4336 6.01528L44.0464 6.38296L44.6593 6.01528L45.6398 5.52502V48.1768H42.4531V5.52502Z" fill="#FBFBFC"/>
<path d="M46.6172 9.56962L49.8038 8.22144V45.6031L46.6172 47.4415V9.56962Z" fill="#FBFBFC"/>
<path d="M41.4688 9.56962L38.2821 8.22144V45.6031L41.4688 47.4415V9.56962Z" fill="#FBFBFC"/>
<path d="M50.7812 15.3301L53.9679 14.1045V43.1518L50.7812 44.9903V15.3301Z" fill="#FBFBFC"/>
<path d="M37.3047 15.3301L34.1181 14.1045V43.1518L37.3047 44.9903V15.3301Z" fill="#FBFBFC"/>
<path d="M43.5547 0.5L44.5352 1.60306V6.62813H43.5547V0.5Z" fill="#FBFBFC"/>
<path d="M32.8902 31.631V28.3218C32.8902 28.3218 26.5168 32.8566 25.4138 33.9597C24.3108 35.0627 24.8011 36.4104 25.4138 37.0237C26.0266 37.6371 34.1158 43.1519 34.1158 43.1519V39.5975C34.1158 39.5975 28.2322 36.7786 28.2322 35.3078C28.2322 34.4499 32.8902 31.631 32.8902 31.631Z" fill="#FBFBFC"/>
<path d="M55.1958 31.631V28.3218C55.1958 28.3218 61.5691 32.8566 62.6721 33.9597C63.7751 35.0627 63.2848 36.4104 62.6721 37.0237C62.0594 37.6371 53.9702 43.1519 53.9702 43.1519V39.5975C53.9702 39.5975 59.8537 36.7786 59.8537 35.3078C59.8537 34.4499 55.1958 31.631 55.1958 31.631Z" fill="#FBFBFC"/>
<path d="M1.1239 64.8927V53.6537H6.02089C7.34816 53.6537 8.40249 53.9962 9.18387 54.6813C9.96524 55.3663 10.3559 56.228 10.3559 57.2662C10.3559 58.0904 10.099 58.8183 9.58526 59.4498C9.08218 60.0706 8.37573 60.4934 7.46591 60.7182L10.2757 64.8927H8.10813L5.45894 60.8788H2.97031V64.8927H1.1239ZM2.97031 59.1126H6.02089C7.62646 59.1126 8.42925 58.4972 8.42925 57.2662C8.42925 56.0353 7.62646 55.4198 6.02089 55.4198H2.97031V59.1126ZM13.8148 64.8927V53.6537H21.9229V55.4198H15.6612V58.3099H20.7188V60.076H15.6612V63.1266H21.9229V64.8927H13.8148ZM25.22 64.8927V53.6537H27.8692L32.7662 62.5646H32.9267L32.7662 61.1999V53.6537H34.6126V64.8927H31.9634L27.0664 55.9818H26.9059L27.0664 57.3465V64.8927H25.22ZM37.4964 55.4198V53.6537H46.7284V55.4198H43.0356V64.8927H41.1892V55.4198H37.4964ZM49.614 64.8927V53.6537H54.511C55.8383 53.6537 56.8926 53.9962 57.674 54.6813C58.4554 55.3663 58.8461 56.228 58.8461 57.2662C58.8461 58.0904 58.5892 58.8183 58.0754 59.4498C57.5723 60.0706 56.8659 60.4934 55.956 60.7182L58.7658 64.8927H56.5983L53.9491 60.8788H51.4604V64.8927H49.614ZM51.4604 59.1126H54.511C56.1166 59.1126 56.9194 58.4972 56.9194 57.2662C56.9194 56.0353 56.1166 55.4198 54.511 55.4198H51.4604V59.1126ZM62.3049 64.8927V53.6537H64.1513V64.8927H62.3049ZM67.0395 55.4198V53.6537H76.2715V55.4198H72.5787V64.8927H70.7323V55.4198H67.0395ZM79.1572 64.8927V53.6537H87.2653V55.4198H81.0036V58.3099H86.0611V60.076H81.0036V63.1266H87.2653V64.8927H79.1572Z" fill="#F3F3F4"/>
</svg>
