<svg width="504" height="573" viewBox="0 0 504 573" fill="none" xmlns="http://www.w3.org/2000/svg">
<rect width="504" height="573" rx="20" fill="#FFF0F0"/>
<g clip-path="url(#clip0_437_8117)">
<path d="M345.152 394.83C319.295 417.236 286.214 429.548 252 429.5C173.297 429.5 109.5 365.703 109.5 287C109.5 208.297 173.297 144.5 252 144.5C330.703 144.5 394.5 208.297 394.5 287C394.5 317.438 384.953 345.653 368.708 368.795L323.25 287H366C365.998 260.726 356.92 235.259 340.303 214.908C323.685 194.556 300.548 180.569 274.805 175.314C249.062 170.058 222.293 173.855 199.028 186.064C175.763 198.273 157.429 218.143 147.127 242.313C136.826 266.484 135.19 293.47 142.496 318.708C149.802 343.946 165.601 365.886 187.221 380.816C208.841 395.746 234.954 402.749 261.143 400.642C287.333 398.535 311.99 387.446 330.945 369.251L345.152 394.83Z" fill="#BC80BD"/>
</g>
<defs>
<clipPath id="clip0_437_8117">
<rect width="342" height="342" fill="white" transform="translate(81 116)"/>
</clipPath>
</defs>
</svg>
