<svg width="494" height="100" viewBox="0 0 494 100" fill="none" xmlns="http://www.w3.org/2000/svg">
<rect width="494" height="100" fill="#F3F3F4"/>
<path d="M99.76 39.86V37.42H102.8C103.187 37.42 103.54 37.34 103.86 37.18C104.18 37.02 104.433 36.7867 104.62 36.48C104.807 36.1733 104.9 35.8 104.9 35.36C104.9 34.9333 104.807 34.5667 104.62 34.26C104.433 33.9533 104.18 33.72 103.86 33.56C103.54 33.4 103.187 33.32 102.8 33.32H99.76V30.88H103.26C104.153 30.88 104.96 31.06 105.68 31.42C106.4 31.78 106.967 32.3 107.38 32.98C107.807 33.6467 108.02 34.44 108.02 35.36C108.02 36.28 107.807 37.08 107.38 37.76C106.967 38.4267 106.4 38.9467 105.68 39.32C104.96 39.68 104.153 39.86 103.26 39.86H99.76ZM97.36 45V30.88H100.5V45H97.36ZM109.439 45V35.28H112.499V45H109.439ZM112.499 39.66L111.219 38.66C111.472 37.5267 111.899 36.6467 112.499 36.02C113.099 35.3933 113.932 35.08 114.999 35.08C115.465 35.08 115.872 35.1533 116.219 35.3C116.579 35.4333 116.892 35.6467 117.159 35.94L115.339 38.24C115.205 38.0933 115.039 37.98 114.839 37.9C114.639 37.82 114.412 37.78 114.159 37.78C113.652 37.78 113.245 37.94 112.939 38.26C112.645 38.5667 112.499 39.0333 112.499 39.66ZM122.18 45.22C121.18 45.22 120.274 45 119.46 44.56C118.66 44.1067 118.027 43.4933 117.56 42.72C117.094 41.9467 116.86 41.08 116.86 40.12C116.86 39.16 117.094 38.3 117.56 37.54C118.027 36.78 118.66 36.18 119.46 35.74C120.26 35.2867 121.167 35.06 122.18 35.06C123.194 35.06 124.1 35.28 124.9 35.72C125.7 36.16 126.334 36.7667 126.8 37.54C127.267 38.3 127.5 39.16 127.5 40.12C127.5 41.08 127.267 41.9467 126.8 42.72C126.334 43.4933 125.7 44.1067 124.9 44.56C124.1 45 123.194 45.22 122.18 45.22ZM122.18 42.44C122.62 42.44 123.007 42.3467 123.34 42.16C123.674 41.96 123.927 41.6867 124.1 41.34C124.287 40.98 124.38 40.5733 124.38 40.12C124.38 39.6667 124.287 39.2733 124.1 38.94C123.914 38.5933 123.654 38.3267 123.32 38.14C123 37.94 122.62 37.84 122.18 37.84C121.754 37.84 121.374 37.94 121.04 38.14C120.707 38.3267 120.447 38.5933 120.26 38.94C120.074 39.2867 119.98 39.6867 119.98 40.14C119.98 40.58 120.074 40.98 120.26 41.34C120.447 41.6867 120.707 41.96 121.04 42.16C121.374 42.3467 121.754 42.44 122.18 42.44ZM134.424 45.2C133.77 45.2 133.17 45.0733 132.624 44.82C132.077 44.5667 131.63 44.22 131.284 43.78C130.937 43.3267 130.737 42.8133 130.684 42.24V38.14C130.737 37.5667 130.937 37.0467 131.284 36.58C131.63 36.1133 132.077 35.7467 132.624 35.48C133.17 35.2133 133.77 35.08 134.424 35.08C135.344 35.08 136.157 35.3 136.864 35.74C137.584 36.18 138.144 36.78 138.544 37.54C138.957 38.3 139.164 39.1667 139.164 40.14C139.164 41.1133 138.957 41.98 138.544 42.74C138.144 43.5 137.584 44.1 136.864 44.54C136.157 44.98 135.344 45.2 134.424 45.2ZM133.864 42.44C134.304 42.44 134.684 42.34 135.004 42.14C135.337 41.94 135.597 41.6667 135.784 41.32C135.97 40.9733 136.064 40.58 136.064 40.14C136.064 39.6867 135.97 39.2867 135.784 38.94C135.597 38.5933 135.337 38.3267 135.004 38.14C134.684 37.94 134.31 37.84 133.884 37.84C133.457 37.84 133.077 37.94 132.744 38.14C132.424 38.3267 132.17 38.5933 131.984 38.94C131.797 39.2867 131.704 39.6867 131.704 40.14C131.704 40.58 131.79 40.9733 131.964 41.32C132.15 41.6667 132.41 41.94 132.744 42.14C133.077 42.34 133.45 42.44 133.864 42.44ZM128.824 49.1V35.28H131.884V37.78L131.384 40.14L131.844 42.5V49.1H128.824ZM145.318 45.22C144.265 45.22 143.325 45.0067 142.498 44.58C141.685 44.14 141.045 43.5333 140.578 42.76C140.112 41.9867 139.878 41.1133 139.878 40.14C139.878 39.1667 140.105 38.3 140.558 37.54C141.025 36.7667 141.652 36.16 142.438 35.72C143.225 35.28 144.112 35.06 145.098 35.06C146.058 35.06 146.905 35.2667 147.638 35.68C148.372 36.0933 148.945 36.6667 149.358 37.4C149.785 38.1333 149.998 38.9733 149.998 39.92C149.998 40.0933 149.985 40.28 149.958 40.48C149.945 40.6667 149.912 40.8867 149.858 41.14L141.478 41.16V39.06L148.558 39.04L147.238 39.92C147.225 39.36 147.138 38.9 146.978 38.54C146.818 38.1667 146.578 37.8867 146.258 37.7C145.952 37.5 145.572 37.4 145.118 37.4C144.638 37.4 144.218 37.5133 143.858 37.74C143.512 37.9533 143.238 38.26 143.038 38.66C142.852 39.06 142.758 39.5467 142.758 40.12C142.758 40.6933 142.858 41.1867 143.058 41.6C143.272 42 143.565 42.3133 143.938 42.54C144.325 42.7533 144.778 42.86 145.298 42.86C145.778 42.86 146.212 42.78 146.598 42.62C146.985 42.4467 147.325 42.1933 147.618 41.86L149.298 43.54C148.818 44.1 148.238 44.52 147.558 44.8C146.878 45.08 146.132 45.22 145.318 45.22ZM151.275 45V35.28H154.335V45H151.275ZM154.335 39.66L153.055 38.66C153.309 37.5267 153.735 36.6467 154.335 36.02C154.935 35.3933 155.769 35.08 156.835 35.08C157.302 35.08 157.709 35.1533 158.055 35.3C158.415 35.4333 158.729 35.6467 158.995 35.94L157.175 38.24C157.042 38.0933 156.875 37.98 156.675 37.9C156.475 37.82 156.249 37.78 155.995 37.78C155.489 37.78 155.082 37.94 154.775 38.26C154.482 38.5667 154.335 39.0333 154.335 39.66ZM161.088 45V31.26H164.148V45H161.088ZM158.888 37.88V35.28H166.348V37.88H158.888ZM170.496 45.04L166.496 35.28H169.796L172.336 43.02H171.116L173.716 35.28H177.016L172.856 45.04H170.496ZM167.996 49.1L170.916 42.8L172.856 45.04L171.136 49.1H167.996ZM188.609 45.24C187.542 45.24 186.555 45.0533 185.649 44.68C184.755 44.3067 183.969 43.7867 183.289 43.12C182.609 42.4533 182.082 41.68 181.709 40.8C181.335 39.9067 181.149 38.9467 181.149 37.92C181.149 36.88 181.335 35.92 181.709 35.04C182.082 34.16 182.602 33.3933 183.269 32.74C183.935 32.0733 184.715 31.56 185.609 31.2C186.515 30.8267 187.502 30.64 188.569 30.64C189.622 30.64 190.595 30.8267 191.489 31.2C192.395 31.56 193.182 32.0733 193.849 32.74C194.529 33.3933 195.055 34.1667 195.429 35.06C195.802 35.94 195.989 36.9 195.989 37.94C195.989 38.9667 195.802 39.9267 195.429 40.82C195.055 41.7 194.535 42.4733 193.869 43.14C193.202 43.7933 192.415 44.3067 191.509 44.68C190.615 45.0533 189.649 45.24 188.609 45.24ZM188.569 42.38C189.409 42.38 190.142 42.1933 190.769 41.82C191.409 41.4467 191.902 40.9267 192.249 40.26C192.595 39.58 192.769 38.8 192.769 37.92C192.769 37.2533 192.669 36.6533 192.469 36.12C192.269 35.5733 191.982 35.1067 191.609 34.72C191.235 34.32 190.789 34.02 190.269 33.82C189.762 33.6067 189.195 33.5 188.569 33.5C187.729 33.5 186.989 33.6867 186.349 34.06C185.722 34.42 185.235 34.9333 184.889 35.6C184.542 36.2533 184.369 37.0267 184.369 37.92C184.369 38.5867 184.469 39.1933 184.669 39.74C184.869 40.2867 185.149 40.76 185.509 41.16C185.882 41.5467 186.329 41.8467 186.849 42.06C187.369 42.2733 187.942 42.38 188.569 42.38ZM199.882 45L196.522 35.28H199.522L201.602 42.34L200.722 42.36L203.022 35.28H205.502L207.822 42.36L206.922 42.34L209.022 35.28H212.022L208.662 45H206.162L203.902 38.28H204.662L202.362 45H199.882ZM219.425 45V39.46C219.425 38.9533 219.265 38.5467 218.945 38.24C218.638 37.92 218.245 37.76 217.765 37.76C217.432 37.76 217.138 37.8333 216.885 37.98C216.632 38.1133 216.432 38.3133 216.285 38.58C216.138 38.8333 216.065 39.1267 216.065 39.46L214.885 38.88C214.885 38.12 215.052 37.4533 215.385 36.88C215.718 36.3067 216.178 35.8667 216.765 35.56C217.365 35.24 218.038 35.08 218.785 35.08C219.505 35.08 220.138 35.2533 220.685 35.6C221.245 35.9333 221.685 36.38 222.005 36.94C222.325 37.5 222.485 38.1133 222.485 38.78V45H219.425ZM213.005 45V35.28H216.065V45H213.005ZM229.05 45.22C227.997 45.22 227.057 45.0067 226.23 44.58C225.417 44.14 224.777 43.5333 224.31 42.76C223.844 41.9867 223.61 41.1133 223.61 40.14C223.61 39.1667 223.837 38.3 224.29 37.54C224.757 36.7667 225.384 36.16 226.17 35.72C226.957 35.28 227.844 35.06 228.83 35.06C229.79 35.06 230.637 35.2667 231.37 35.68C232.104 36.0933 232.677 36.6667 233.09 37.4C233.517 38.1333 233.73 38.9733 233.73 39.92C233.73 40.0933 233.717 40.28 233.69 40.48C233.677 40.6667 233.644 40.8867 233.59 41.14L225.21 41.16V39.06L232.29 39.04L230.97 39.92C230.957 39.36 230.87 38.9 230.71 38.54C230.55 38.1667 230.31 37.8867 229.99 37.7C229.684 37.5 229.304 37.4 228.85 37.4C228.37 37.4 227.95 37.5133 227.59 37.74C227.244 37.9533 226.97 38.26 226.77 38.66C226.584 39.06 226.49 39.5467 226.49 40.12C226.49 40.6933 226.59 41.1867 226.79 41.6C227.004 42 227.297 42.3133 227.67 42.54C228.057 42.7533 228.51 42.86 229.03 42.86C229.51 42.86 229.944 42.78 230.33 42.62C230.717 42.4467 231.057 42.1933 231.35 41.86L233.03 43.54C232.55 44.1 231.97 44.52 231.29 44.8C230.61 45.08 229.864 45.22 229.05 45.22ZM235.007 45V35.28H238.067V45H235.007ZM238.067 39.66L236.787 38.66C237.041 37.5267 237.467 36.6467 238.067 36.02C238.667 35.3933 239.501 35.08 240.567 35.08C241.034 35.08 241.441 35.1533 241.787 35.3C242.147 35.4333 242.461 35.6467 242.727 35.94L240.907 38.24C240.774 38.0933 240.607 37.98 240.407 37.9C240.207 37.82 239.981 37.78 239.727 37.78C239.221 37.78 238.814 37.94 238.507 38.26C238.214 38.5667 238.067 39.0333 238.067 39.66Z" fill="#161518"/>
<path d="M100.832 65.488L96.464 58.896H98.208L101.728 64.288H100.944L104.48 58.896H106.192L101.792 65.488H100.832ZM100.576 70V64.496H102.08V70H100.576ZM108.809 70.16C108.063 70.16 107.391 69.984 106.793 69.632C106.196 69.28 105.721 68.8053 105.369 68.208C105.017 67.6 104.841 66.9227 104.841 66.176C104.841 65.44 105.017 64.7787 105.369 64.192C105.721 63.5947 106.196 63.12 106.793 62.768C107.391 62.416 108.063 62.24 108.809 62.24C109.545 62.24 110.212 62.416 110.809 62.768C111.417 63.1093 111.897 63.5787 112.249 64.176C112.601 64.7733 112.777 65.44 112.777 66.176C112.777 66.9227 112.601 67.6 112.249 68.208C111.897 68.8053 111.417 69.28 110.809 69.632C110.212 69.984 109.545 70.16 108.809 70.16ZM108.809 68.768C109.289 68.768 109.716 68.656 110.089 68.432C110.463 68.208 110.756 67.904 110.969 67.52C111.183 67.1253 111.289 66.6773 111.289 66.176C111.289 65.6853 111.177 65.248 110.953 64.864C110.74 64.48 110.447 64.1813 110.073 63.968C109.711 63.744 109.289 63.632 108.809 63.632C108.329 63.632 107.903 63.744 107.529 63.968C107.156 64.1813 106.863 64.48 106.649 64.864C106.436 65.248 106.329 65.6853 106.329 66.176C106.329 66.6773 106.436 67.1253 106.649 67.52C106.863 67.904 107.156 68.208 107.529 68.432C107.903 68.656 108.329 68.768 108.809 68.768ZM117.456 70.16C116.837 70.16 116.277 70.0213 115.776 69.744C115.285 69.456 114.901 69.0613 114.624 68.56C114.346 68.0587 114.208 67.4773 114.208 66.816V62.4H115.648V66.752C115.648 67.168 115.717 67.5307 115.856 67.84C116.005 68.1387 116.218 68.368 116.496 68.528C116.773 68.688 117.098 68.768 117.472 68.768C118.037 68.768 118.48 68.592 118.8 68.24C119.12 67.8773 119.28 67.3813 119.28 66.752V62.4H120.72V66.816C120.72 67.4773 120.581 68.0587 120.304 68.56C120.026 69.0613 119.642 69.456 119.152 69.744C118.672 70.0213 118.106 70.16 117.456 70.16ZM129.45 70.16C128.703 70.16 128.031 69.984 127.434 69.632C126.837 69.28 126.362 68.8053 126.01 68.208C125.658 67.6 125.482 66.9227 125.482 66.176C125.482 65.44 125.658 64.7787 126.01 64.192C126.362 63.5947 126.837 63.12 127.434 62.768C128.031 62.416 128.703 62.24 129.45 62.24C130.186 62.24 130.853 62.416 131.45 62.768C132.058 63.1093 132.538 63.5787 132.89 64.176C133.242 64.7733 133.418 65.44 133.418 66.176C133.418 66.9227 133.242 67.6 132.89 68.208C132.538 68.8053 132.058 69.28 131.45 69.632C130.853 69.984 130.186 70.16 129.45 70.16ZM129.45 68.768C129.93 68.768 130.357 68.656 130.73 68.432C131.103 68.208 131.397 67.904 131.61 67.52C131.823 67.1253 131.93 66.6773 131.93 66.176C131.93 65.6853 131.818 65.248 131.594 64.864C131.381 64.48 131.087 64.1813 130.714 63.968C130.351 63.744 129.93 63.632 129.45 63.632C128.97 63.632 128.543 63.744 128.17 63.968C127.797 64.1813 127.503 64.48 127.29 64.864C127.077 65.248 126.97 65.6853 126.97 66.176C126.97 66.6773 127.077 67.1253 127.29 67.52C127.503 67.904 127.797 68.208 128.17 68.432C128.543 68.656 128.97 68.768 129.45 68.768ZM136.998 70L133.99 62.4H135.494L137.67 68.32H137.19L139.35 62.4H140.182L142.342 68.32H141.862L144.038 62.4H145.542L142.55 70H141.702L139.51 64.256H140.038L137.83 70H136.998ZM152.198 70V65.568C152.198 64.992 152.016 64.5173 151.654 64.144C151.291 63.7707 150.822 63.584 150.246 63.584C149.862 63.584 149.52 63.6693 149.222 63.84C148.923 64.0107 148.688 64.2453 148.518 64.544C148.347 64.8427 148.262 65.184 148.262 65.568L147.67 65.232C147.67 64.656 147.798 64.144 148.054 63.696C148.31 63.248 148.667 62.896 149.126 62.64C149.584 62.3733 150.102 62.24 150.678 62.24C151.254 62.24 151.76 62.384 152.198 62.672C152.646 62.96 152.998 63.3387 153.254 63.808C153.51 64.2667 153.638 64.7573 153.638 65.28V70H152.198ZM146.822 70V62.4H148.262V70H146.822ZM162.147 70.16C161.454 70.16 160.825 69.9893 160.259 69.648C159.694 69.296 159.246 68.8213 158.915 68.224C158.595 67.6267 158.435 66.9547 158.435 66.208C158.435 65.4613 158.595 64.7893 158.915 64.192C159.246 63.5947 159.689 63.12 160.243 62.768C160.809 62.416 161.443 62.24 162.147 62.24C162.723 62.24 163.235 62.3627 163.683 62.608C164.142 62.8427 164.51 63.1733 164.787 63.6C165.065 64.016 165.219 64.5013 165.251 65.056V67.344C165.219 67.888 165.065 68.3733 164.787 68.8C164.521 69.2267 164.158 69.5627 163.699 69.808C163.251 70.0427 162.734 70.16 162.147 70.16ZM162.387 68.8C163.102 68.8 163.678 68.56 164.115 68.08C164.553 67.5893 164.771 66.9653 164.771 66.208C164.771 65.6853 164.67 65.232 164.467 64.848C164.275 64.4533 163.998 64.1493 163.635 63.936C163.273 63.712 162.851 63.6 162.371 63.6C161.891 63.6 161.465 63.712 161.091 63.936C160.729 64.16 160.441 64.4693 160.227 64.864C160.025 65.248 159.923 65.6907 159.923 66.192C159.923 66.704 160.025 67.1573 160.227 67.552C160.441 67.936 160.734 68.24 161.107 68.464C161.481 68.688 161.907 68.8 162.387 68.8ZM164.675 70V67.952L164.947 66.096L164.675 64.256V62.4H166.131V70H164.675ZM175.556 70.16C174.98 70.16 174.457 70.0427 173.988 69.808C173.529 69.5627 173.161 69.2267 172.884 68.8C172.607 68.3733 172.452 67.888 172.42 67.344V65.056C172.452 64.5013 172.607 64.016 172.884 63.6C173.172 63.1733 173.545 62.8427 174.004 62.608C174.473 62.3627 174.991 62.24 175.556 62.24C176.249 62.24 176.873 62.416 177.428 62.768C177.993 63.12 178.436 63.5947 178.756 64.192C179.076 64.7893 179.236 65.4613 179.236 66.208C179.236 66.9547 179.076 67.6267 178.756 68.224C178.436 68.8213 177.993 69.296 177.428 69.648C176.873 69.9893 176.249 70.16 175.556 70.16ZM175.316 68.8C175.796 68.8 176.217 68.688 176.58 68.464C176.943 68.24 177.231 67.936 177.444 67.552C177.657 67.1573 177.764 66.704 177.764 66.192C177.764 65.6907 177.657 65.2427 177.444 64.848C177.231 64.4533 176.943 64.1493 176.58 63.936C176.217 63.712 175.801 63.6 175.332 63.6C174.852 63.6 174.431 63.712 174.068 63.936C173.705 64.1493 173.423 64.4533 173.22 64.848C173.017 65.2427 172.916 65.696 172.916 66.208C172.916 66.7093 173.012 67.1573 173.204 67.552C173.407 67.936 173.689 68.24 174.052 68.464C174.425 68.688 174.847 68.8 175.316 68.8ZM171.556 73.184V62.4H172.996V64.4L172.724 66.24L172.996 68.096V73.184H171.556ZM180.868 70V62.4H182.309V70H180.868ZM182.309 65.664L181.765 65.424C181.765 64.4533 181.989 63.68 182.437 63.104C182.885 62.528 183.53 62.24 184.373 62.24C184.757 62.24 185.103 62.3093 185.413 62.448C185.722 62.576 186.01 62.7947 186.277 63.104L185.333 64.08C185.173 63.9093 184.997 63.7867 184.805 63.712C184.613 63.6373 184.389 63.6 184.133 63.6C183.599 63.6 183.162 63.7707 182.821 64.112C182.479 64.4533 182.309 64.9707 182.309 65.664ZM190.512 70.16C189.766 70.16 189.094 69.984 188.496 69.632C187.899 69.28 187.424 68.8053 187.072 68.208C186.72 67.6 186.544 66.9227 186.544 66.176C186.544 65.44 186.72 64.7787 187.072 64.192C187.424 63.5947 187.899 63.12 188.496 62.768C189.094 62.416 189.766 62.24 190.512 62.24C191.248 62.24 191.915 62.416 192.512 62.768C193.12 63.1093 193.6 63.5787 193.952 64.176C194.304 64.7733 194.48 65.44 194.48 66.176C194.48 66.9227 194.304 67.6 193.952 68.208C193.6 68.8053 193.12 69.28 192.512 69.632C191.915 69.984 191.248 70.16 190.512 70.16ZM190.512 68.768C190.992 68.768 191.419 68.656 191.792 68.432C192.166 68.208 192.459 67.904 192.672 67.52C192.886 67.1253 192.992 66.6773 192.992 66.176C192.992 65.6853 192.88 65.248 192.656 64.864C192.443 64.48 192.15 64.1813 191.776 63.968C191.414 63.744 190.992 63.632 190.512 63.632C190.032 63.632 189.606 63.744 189.232 63.968C188.859 64.1813 188.566 64.48 188.352 64.864C188.139 65.248 188.032 65.6853 188.032 66.176C188.032 66.6773 188.139 67.1253 188.352 67.52C188.566 67.904 188.859 68.208 189.232 68.432C189.606 68.656 190.032 68.768 190.512 68.768ZM200.103 70.16C199.527 70.16 199.004 70.0427 198.535 69.808C198.076 69.5627 197.708 69.2267 197.431 68.8C197.154 68.3733 196.999 67.888 196.967 67.344V65.056C196.999 64.5013 197.154 64.016 197.431 63.6C197.719 63.1733 198.092 62.8427 198.551 62.608C199.02 62.3627 199.538 62.24 200.103 62.24C200.796 62.24 201.42 62.416 201.975 62.768C202.54 63.12 202.983 63.5947 203.303 64.192C203.623 64.7893 203.783 65.4613 203.783 66.208C203.783 66.9547 203.623 67.6267 203.303 68.224C202.983 68.8213 202.54 69.296 201.975 69.648C201.42 69.9893 200.796 70.16 200.103 70.16ZM199.863 68.8C200.343 68.8 200.764 68.688 201.127 68.464C201.49 68.24 201.778 67.936 201.991 67.552C202.204 67.1573 202.311 66.704 202.311 66.192C202.311 65.6907 202.204 65.2427 201.991 64.848C201.778 64.4533 201.49 64.1493 201.127 63.936C200.764 63.712 200.348 63.6 199.879 63.6C199.399 63.6 198.978 63.712 198.615 63.936C198.252 64.1493 197.97 64.4533 197.767 64.848C197.564 65.2427 197.463 65.696 197.463 66.208C197.463 66.7093 197.559 67.1573 197.751 67.552C197.954 67.936 198.236 68.24 198.599 68.464C198.972 68.688 199.394 68.8 199.863 68.8ZM196.103 73.184V62.4H197.543V64.4L197.271 66.24L197.543 68.096V73.184H196.103ZM208.935 70.16C208.178 70.16 207.495 69.9893 206.887 69.648C206.279 69.296 205.799 68.8213 205.447 68.224C205.095 67.6267 204.919 66.9493 204.919 66.192C204.919 65.4453 205.09 64.7733 205.431 64.176C205.783 63.5787 206.253 63.1093 206.839 62.768C207.437 62.416 208.103 62.24 208.839 62.24C209.543 62.24 210.162 62.4 210.695 62.72C211.239 63.04 211.661 63.4827 211.959 64.048C212.269 64.6133 212.423 65.2533 212.423 65.968C212.423 66.0747 212.418 66.192 212.407 66.32C212.397 66.4373 212.375 66.576 212.343 66.736H205.927V65.536H211.575L211.047 66C211.047 65.488 210.957 65.056 210.775 64.704C210.594 64.3413 210.338 64.064 210.007 63.872C209.677 63.6693 209.277 63.568 208.807 63.568C208.317 63.568 207.885 63.6747 207.511 63.888C207.138 64.1013 206.85 64.4 206.647 64.784C206.445 65.168 206.343 65.6213 206.343 66.144C206.343 66.6773 206.45 67.1467 206.663 67.552C206.877 67.9467 207.181 68.256 207.575 68.48C207.97 68.6933 208.423 68.8 208.935 68.8C209.362 68.8 209.751 68.7253 210.103 68.576C210.466 68.4267 210.775 68.2027 211.031 67.904L211.959 68.848C211.597 69.2747 211.149 69.6 210.615 69.824C210.093 70.048 209.533 70.16 208.935 70.16ZM213.993 70V62.4H215.434V70H213.993ZM215.434 65.664L214.89 65.424C214.89 64.4533 215.114 63.68 215.562 63.104C216.01 62.528 216.655 62.24 217.498 62.24C217.882 62.24 218.228 62.3093 218.538 62.448C218.847 62.576 219.135 62.7947 219.402 63.104L218.458 64.08C218.298 63.9093 218.122 63.7867 217.93 63.712C217.738 63.6373 217.514 63.6 217.258 63.6C216.724 63.6 216.287 63.7707 215.946 64.112C215.604 64.4533 215.434 64.9707 215.434 65.664ZM221.552 70V59.216H222.992V70H221.552ZM219.68 63.712V62.4H224.864V63.712H219.68ZM228.771 70.064L225.475 62.4H227.075L229.523 68.4H229.011L231.587 62.4H233.187L229.635 70.064H228.771ZM226.595 73.184L228.835 68.592L229.635 70.064L228.195 73.184H226.595ZM241.054 70.16C240.36 70.16 239.731 69.9893 239.166 69.648C238.6 69.296 238.152 68.8213 237.822 68.224C237.502 67.6267 237.342 66.9547 237.342 66.208C237.342 65.4613 237.502 64.7893 237.822 64.192C238.152 63.5947 238.595 63.12 239.15 62.768C239.715 62.416 240.35 62.24 241.054 62.24C241.63 62.24 242.142 62.3627 242.59 62.608C243.048 62.8427 243.416 63.1733 243.694 63.6C243.971 64.016 244.126 64.5013 244.158 65.056V67.344C244.126 67.888 243.971 68.3733 243.694 68.8C243.427 69.2267 243.064 69.5627 242.606 69.808C242.158 70.0427 241.64 70.16 241.054 70.16ZM241.294 68.8C242.008 68.8 242.584 68.56 243.022 68.08C243.459 67.5893 243.678 66.9653 243.678 66.208C243.678 65.6853 243.576 65.232 243.374 64.848C243.182 64.4533 242.904 64.1493 242.542 63.936C242.179 63.712 241.758 63.6 241.278 63.6C240.798 63.6 240.371 63.712 239.998 63.936C239.635 64.16 239.347 64.4693 239.134 64.864C238.931 65.248 238.83 65.6907 238.83 66.192C238.83 66.704 238.931 67.1573 239.134 67.552C239.347 67.936 239.64 68.24 240.014 68.464C240.387 68.688 240.814 68.8 241.294 68.8ZM243.582 70V67.952L243.854 66.096L243.582 64.256V62.4H245.038V70H243.582ZM252.51 70V65.568C252.51 64.992 252.329 64.5173 251.966 64.144C251.603 63.7707 251.134 63.584 250.558 63.584C250.174 63.584 249.833 63.6693 249.534 63.84C249.235 64.0107 249.001 64.2453 248.83 64.544C248.659 64.8427 248.574 65.184 248.574 65.568L247.982 65.232C247.982 64.656 248.11 64.144 248.366 63.696C248.622 63.248 248.979 62.896 249.438 62.64C249.897 62.3733 250.414 62.24 250.99 62.24C251.566 62.24 252.073 62.384 252.51 62.672C252.958 62.96 253.31 63.3387 253.566 63.808C253.822 64.2667 253.95 64.7573 253.95 65.28V70H252.51ZM247.134 70V62.4H248.574V70H247.134ZM259.116 70.16C258.412 70.16 257.782 69.9893 257.228 69.648C256.673 69.296 256.23 68.8213 255.9 68.224C255.58 67.6267 255.42 66.9547 255.42 66.208C255.42 65.4613 255.58 64.7893 255.9 64.192C256.23 63.5947 256.673 63.12 257.228 62.768C257.782 62.416 258.412 62.24 259.116 62.24C259.681 62.24 260.193 62.3627 260.652 62.608C261.11 62.8427 261.478 63.1733 261.756 63.6C262.044 64.016 262.204 64.5013 262.236 65.056V67.344C262.204 67.888 262.049 68.3733 261.772 68.8C261.494 69.2267 261.126 69.5627 260.668 69.808C260.209 70.0427 259.692 70.16 259.116 70.16ZM259.356 68.8C259.836 68.8 260.252 68.688 260.604 68.464C260.966 68.24 261.249 67.936 261.452 67.552C261.654 67.1573 261.756 66.7093 261.756 66.208C261.756 65.6853 261.649 65.232 261.436 64.848C261.233 64.464 260.95 64.16 260.588 63.936C260.236 63.712 259.82 63.6 259.34 63.6C258.86 63.6 258.438 63.712 258.076 63.936C257.713 64.16 257.425 64.4693 257.212 64.864C257.009 65.248 256.908 65.6907 256.908 66.192C256.908 66.704 257.009 67.1573 257.212 67.552C257.425 67.936 257.713 68.24 258.076 68.464C258.449 68.688 258.876 68.8 259.356 68.8ZM263.116 70H261.66V67.952L261.932 66.096L261.66 64.256V58.576H263.116V70ZM271.036 70.064L267.74 62.4H269.34L271.788 68.4H271.276L273.852 62.4H275.452L271.9 70.064H271.036ZM268.86 73.184L271.1 68.592L271.9 70.064L270.46 73.184H268.86ZM279.809 70.16C279.063 70.16 278.391 69.984 277.793 69.632C277.196 69.28 276.721 68.8053 276.369 68.208C276.017 67.6 275.841 66.9227 275.841 66.176C275.841 65.44 276.017 64.7787 276.369 64.192C276.721 63.5947 277.196 63.12 277.793 62.768C278.391 62.416 279.063 62.24 279.809 62.24C280.545 62.24 281.212 62.416 281.809 62.768C282.417 63.1093 282.897 63.5787 283.249 64.176C283.601 64.7733 283.777 65.44 283.777 66.176C283.777 66.9227 283.601 67.6 283.249 68.208C282.897 68.8053 282.417 69.28 281.809 69.632C281.212 69.984 280.545 70.16 279.809 70.16ZM279.809 68.768C280.289 68.768 280.716 68.656 281.089 68.432C281.463 68.208 281.756 67.904 281.969 67.52C282.183 67.1253 282.289 66.6773 282.289 66.176C282.289 65.6853 282.177 65.248 281.953 64.864C281.74 64.48 281.447 64.1813 281.073 63.968C280.711 63.744 280.289 63.632 279.809 63.632C279.329 63.632 278.903 63.744 278.529 63.968C278.156 64.1813 277.863 64.48 277.649 64.864C277.436 65.248 277.329 65.6853 277.329 66.176C277.329 66.6773 277.436 67.1253 277.649 67.52C277.863 67.904 278.156 68.208 278.529 68.432C278.903 68.656 279.329 68.768 279.809 68.768ZM288.456 70.16C287.837 70.16 287.277 70.0213 286.776 69.744C286.285 69.456 285.901 69.0613 285.624 68.56C285.346 68.0587 285.208 67.4773 285.208 66.816V62.4H286.648V66.752C286.648 67.168 286.717 67.5307 286.856 67.84C287.005 68.1387 287.218 68.368 287.496 68.528C287.773 68.688 288.098 68.768 288.472 68.768C289.037 68.768 289.48 68.592 289.8 68.24C290.12 67.8773 290.28 67.3813 290.28 66.752V62.4H291.72V66.816C291.72 67.4773 291.581 68.0587 291.304 68.56C291.026 69.0613 290.642 69.456 290.152 69.744C289.672 70.0213 289.106 70.16 288.456 70.16ZM293.412 62.432L294.404 60.528L294.916 60.4C294.863 60.5173 294.794 60.6133 294.708 60.688C294.634 60.7627 294.538 60.8 294.42 60.8C294.196 60.8 293.988 60.7093 293.796 60.528C293.615 60.336 293.524 60.1013 293.524 59.824C293.524 59.5253 293.626 59.2693 293.828 59.056C294.042 58.8427 294.298 58.736 294.596 58.736C294.874 58.736 295.119 58.8427 295.332 59.056C295.546 59.2693 295.652 59.5253 295.652 59.824C295.652 59.9413 295.626 60.0853 295.572 60.256C295.53 60.416 295.439 60.6293 295.3 60.896L294.244 62.88L293.412 62.432ZM296.884 70V62.4H298.324V70H296.884ZM298.324 65.664L297.78 65.424C297.78 64.4533 298.004 63.68 298.452 63.104C298.9 62.528 299.545 62.24 300.388 62.24C300.772 62.24 301.119 62.3093 301.428 62.448C301.737 62.576 302.025 62.7947 302.292 63.104L301.348 64.08C301.188 63.9093 301.012 63.7867 300.82 63.712C300.628 63.6373 300.404 63.6 300.148 63.6C299.615 63.6 299.177 63.7707 298.836 64.112C298.495 64.4533 298.324 64.9707 298.324 65.664ZM306.576 70.16C305.819 70.16 305.136 69.9893 304.528 69.648C303.92 69.296 303.44 68.8213 303.088 68.224C302.736 67.6267 302.56 66.9493 302.56 66.192C302.56 65.4453 302.731 64.7733 303.072 64.176C303.424 63.5787 303.893 63.1093 304.48 62.768C305.077 62.416 305.744 62.24 306.48 62.24C307.184 62.24 307.803 62.4 308.336 62.72C308.88 63.04 309.301 63.4827 309.6 64.048C309.909 64.6133 310.064 65.2533 310.064 65.968C310.064 66.0747 310.059 66.192 310.048 66.32C310.037 66.4373 310.016 66.576 309.984 66.736H303.568V65.536H309.216L308.688 66C308.688 65.488 308.597 65.056 308.416 64.704C308.235 64.3413 307.979 64.064 307.648 63.872C307.317 63.6693 306.917 63.568 306.448 63.568C305.957 63.568 305.525 63.6747 305.152 63.888C304.779 64.1013 304.491 64.4 304.288 64.784C304.085 65.168 303.984 65.6213 303.984 66.144C303.984 66.6773 304.091 67.1467 304.304 67.552C304.517 67.9467 304.821 68.256 305.216 68.48C305.611 68.6933 306.064 68.8 306.576 68.8C307.003 68.8 307.392 68.7253 307.744 68.576C308.107 68.4267 308.416 68.2027 308.672 67.904L309.6 68.848C309.237 69.2747 308.789 69.6 308.256 69.824C307.733 70.048 307.173 70.16 306.576 70.16ZM314.962 70V58.576H316.402V70H314.962ZM321.981 70.16C321.234 70.16 320.562 69.984 319.965 69.632C319.368 69.28 318.893 68.8053 318.541 68.208C318.189 67.6 318.013 66.9227 318.013 66.176C318.013 65.44 318.189 64.7787 318.541 64.192C318.893 63.5947 319.368 63.12 319.965 62.768C320.562 62.416 321.234 62.24 321.981 62.24C322.717 62.24 323.384 62.416 323.981 62.768C324.589 63.1093 325.069 63.5787 325.421 64.176C325.773 64.7733 325.949 65.44 325.949 66.176C325.949 66.9227 325.773 67.6 325.421 68.208C325.069 68.8053 324.589 69.28 323.981 69.632C323.384 69.984 322.717 70.16 321.981 70.16ZM321.981 68.768C322.461 68.768 322.888 68.656 323.261 68.432C323.634 68.208 323.928 67.904 324.141 67.52C324.354 67.1253 324.461 66.6773 324.461 66.176C324.461 65.6853 324.349 65.248 324.125 64.864C323.912 64.48 323.618 64.1813 323.245 63.968C322.882 63.744 322.461 63.632 321.981 63.632C321.501 63.632 321.074 63.744 320.701 63.968C320.328 64.1813 320.034 64.48 319.821 64.864C319.608 65.248 319.501 65.6853 319.501 66.176C319.501 66.6773 319.608 67.1253 319.821 67.52C320.034 67.904 320.328 68.208 320.701 68.432C321.074 68.656 321.501 68.768 321.981 68.768ZM331.044 70.16C330.297 70.16 329.625 69.984 329.028 69.632C328.43 69.28 327.956 68.8053 327.604 68.208C327.252 67.6 327.076 66.9227 327.076 66.176C327.076 65.44 327.252 64.7787 327.604 64.192C327.956 63.5947 328.43 63.12 329.028 62.768C329.625 62.416 330.297 62.24 331.044 62.24C331.78 62.24 332.446 62.416 333.044 62.768C333.652 63.1093 334.132 63.5787 334.484 64.176C334.836 64.7733 335.012 65.44 335.012 66.176C335.012 66.9227 334.836 67.6 334.484 68.208C334.132 68.8053 333.652 69.28 333.044 69.632C332.446 69.984 331.78 70.16 331.044 70.16ZM331.044 68.768C331.524 68.768 331.95 68.656 332.324 68.432C332.697 68.208 332.99 67.904 333.204 67.52C333.417 67.1253 333.524 66.6773 333.524 66.176C333.524 65.6853 333.412 65.248 333.188 64.864C332.974 64.48 332.681 64.1813 332.308 63.968C331.945 63.744 331.524 63.632 331.044 63.632C330.564 63.632 330.137 63.744 329.764 63.968C329.39 64.1813 329.097 64.48 328.884 64.864C328.67 65.248 328.564 65.6853 328.564 66.176C328.564 66.6773 328.67 67.1253 328.884 67.52C329.097 67.904 329.39 68.208 329.764 68.432C330.137 68.656 330.564 68.768 331.044 68.768ZM341.498 70L337.946 66.112L341.466 62.4H343.21L339.29 66.496L339.354 65.664L343.354 70H341.498ZM336.634 70V58.576H338.074V70H336.634ZM344.338 70V62.4H345.778V70H344.338ZM345.058 60.88C344.791 60.88 344.572 60.7947 344.402 60.624C344.231 60.4427 344.146 60.2187 344.146 59.952C344.146 59.696 344.231 59.4827 344.402 59.312C344.572 59.1307 344.791 59.04 345.058 59.04C345.324 59.04 345.543 59.1307 345.714 59.312C345.884 59.4827 345.97 59.696 345.97 59.952C345.97 60.2187 345.884 60.4427 345.714 60.624C345.543 60.7947 345.324 60.88 345.058 60.88ZM353.276 70V65.568C353.276 64.992 353.094 64.5173 352.732 64.144C352.369 63.7707 351.9 63.584 351.324 63.584C350.94 63.584 350.598 63.6693 350.3 63.84C350.001 64.0107 349.766 64.2453 349.596 64.544C349.425 64.8427 349.34 65.184 349.34 65.568L348.748 65.232C348.748 64.656 348.876 64.144 349.132 63.696C349.388 63.248 349.745 62.896 350.204 62.64C350.662 62.3733 351.18 62.24 351.756 62.24C352.332 62.24 352.838 62.384 353.276 62.672C353.724 62.96 354.076 63.3387 354.332 63.808C354.588 64.2667 354.716 64.7573 354.716 65.28V70H353.276ZM347.9 70V62.4H349.34V70H347.9ZM359.817 73.344C359.039 73.344 358.345 73.2 357.737 72.912C357.14 72.624 356.66 72.2187 356.297 71.696L357.225 70.752C357.535 71.1467 357.903 71.4453 358.329 71.648C358.756 71.8613 359.263 71.968 359.849 71.968C360.628 71.968 361.241 71.76 361.689 71.344C362.148 70.9387 362.377 70.3893 362.377 69.696V67.808L362.633 66.096L362.377 64.4V62.4H363.817V69.696C363.817 70.4213 363.647 71.056 363.305 71.6C362.975 72.144 362.505 72.5707 361.897 72.88C361.3 73.1893 360.607 73.344 359.817 73.344ZM359.817 69.872C359.124 69.872 358.5 69.7067 357.945 69.376C357.401 69.0453 356.969 68.592 356.649 68.016C356.329 67.4293 356.169 66.7733 356.169 66.048C356.169 65.3227 356.329 64.6773 356.649 64.112C356.969 63.536 357.401 63.0827 357.945 62.752C358.5 62.4107 359.124 62.24 359.817 62.24C360.415 62.24 360.943 62.3573 361.401 62.592C361.86 62.8267 362.223 63.1573 362.489 63.584C362.767 64 362.916 64.4907 362.937 65.056V67.072C362.905 67.6267 362.751 68.1173 362.473 68.544C362.207 68.96 361.844 69.2853 361.385 69.52C360.927 69.7547 360.404 69.872 359.817 69.872ZM360.105 68.512C360.575 68.512 360.985 68.4107 361.337 68.208C361.7 68.0053 361.977 67.7227 362.169 67.36C362.361 66.9867 362.457 66.5547 362.457 66.064C362.457 65.5733 362.356 65.1467 362.153 64.784C361.961 64.4107 361.689 64.1227 361.337 63.92C360.985 63.7067 360.569 63.6 360.089 63.6C359.609 63.6 359.188 63.7067 358.825 63.92C358.463 64.1227 358.175 64.4107 357.961 64.784C357.759 65.1467 357.657 65.568 357.657 66.048C357.657 66.528 357.759 66.9547 357.961 67.328C358.175 67.7013 358.463 67.9947 358.825 68.208C359.199 68.4107 359.625 68.512 360.105 68.512ZM370.427 70V59.216H371.867V70H370.427ZM368.555 63.712V62.4H373.739V63.712H368.555ZM378.387 70.16C377.641 70.16 376.969 69.984 376.371 69.632C375.774 69.28 375.299 68.8053 374.947 68.208C374.595 67.6 374.419 66.9227 374.419 66.176C374.419 65.44 374.595 64.7787 374.947 64.192C375.299 63.5947 375.774 63.12 376.371 62.768C376.969 62.416 377.641 62.24 378.387 62.24C379.123 62.24 379.79 62.416 380.387 62.768C380.995 63.1093 381.475 63.5787 381.827 64.176C382.179 64.7733 382.355 65.44 382.355 66.176C382.355 66.9227 382.179 67.6 381.827 68.208C381.475 68.8053 380.995 69.28 380.387 69.632C379.79 69.984 379.123 70.16 378.387 70.16ZM378.387 68.768C378.867 68.768 379.294 68.656 379.667 68.432C380.041 68.208 380.334 67.904 380.547 67.52C380.761 67.1253 380.867 66.6773 380.867 66.176C380.867 65.6853 380.755 65.248 380.531 64.864C380.318 64.48 380.025 64.1813 379.651 63.968C379.289 63.744 378.867 63.632 378.387 63.632C377.907 63.632 377.481 63.744 377.107 63.968C376.734 64.1813 376.441 64.48 376.227 64.864C376.014 65.248 375.907 65.6853 375.907 66.176C375.907 66.6773 376.014 67.1253 376.227 67.52C376.441 67.904 376.734 68.208 377.107 68.432C377.481 68.656 377.907 68.768 378.387 68.768ZM389.722 70.16C389.295 70.16 388.89 70.1067 388.506 70C388.133 69.8827 387.786 69.7227 387.466 69.52C387.146 69.3067 386.869 69.056 386.634 68.768L387.562 67.84C387.839 68.1813 388.159 68.4373 388.522 68.608C388.885 68.768 389.29 68.848 389.738 68.848C390.186 68.848 390.533 68.7733 390.778 68.624C391.023 68.464 391.146 68.2453 391.146 67.968C391.146 67.6907 391.045 67.4773 390.842 67.328C390.65 67.168 390.399 67.04 390.09 66.944C389.781 66.8373 389.45 66.736 389.098 66.64C388.757 66.5333 388.431 66.4 388.122 66.24C387.813 66.08 387.557 65.8613 387.354 65.584C387.162 65.3067 387.066 64.9387 387.066 64.48C387.066 64.0213 387.178 63.6267 387.402 63.296C387.626 62.9547 387.935 62.6933 388.33 62.512C388.735 62.3307 389.221 62.24 389.786 62.24C390.383 62.24 390.911 62.3467 391.37 62.56C391.839 62.7627 392.223 63.072 392.522 63.488L391.594 64.416C391.381 64.1387 391.114 63.9253 390.794 63.776C390.485 63.6267 390.133 63.552 389.738 63.552C389.322 63.552 389.002 63.6267 388.778 63.776C388.565 63.9147 388.458 64.112 388.458 64.368C388.458 64.624 388.554 64.8213 388.746 64.96C388.938 65.0987 389.189 65.216 389.498 65.312C389.818 65.408 390.149 65.5093 390.49 65.616C390.831 65.712 391.157 65.8453 391.466 66.016C391.775 66.1867 392.026 66.416 392.218 66.704C392.421 66.992 392.522 67.3707 392.522 67.84C392.522 68.5547 392.266 69.12 391.754 69.536C391.253 69.952 390.575 70.16 389.722 70.16ZM397.654 70.16C396.897 70.16 396.214 69.9893 395.606 69.648C394.998 69.296 394.518 68.8213 394.166 68.224C393.814 67.6267 393.638 66.9493 393.638 66.192C393.638 65.4453 393.809 64.7733 394.15 64.176C394.502 63.5787 394.971 63.1093 395.558 62.768C396.155 62.416 396.822 62.24 397.558 62.24C398.262 62.24 398.881 62.4 399.414 62.72C399.958 63.04 400.379 63.4827 400.678 64.048C400.987 64.6133 401.142 65.2533 401.142 65.968C401.142 66.0747 401.137 66.192 401.126 66.32C401.115 66.4373 401.094 66.576 401.062 66.736H394.646V65.536H400.294L399.766 66C399.766 65.488 399.675 65.056 399.494 64.704C399.313 64.3413 399.057 64.064 398.726 63.872C398.395 63.6693 397.995 63.568 397.526 63.568C397.035 63.568 396.603 63.6747 396.23 63.888C395.857 64.1013 395.569 64.4 395.366 64.784C395.163 65.168 395.062 65.6213 395.062 66.144C395.062 66.6773 395.169 67.1467 395.382 67.552C395.595 67.9467 395.899 68.256 396.294 68.48C396.689 68.6933 397.142 68.8 397.654 68.8C398.081 68.8 398.47 68.7253 398.822 68.576C399.185 68.4267 399.494 68.2027 399.75 67.904L400.678 68.848C400.315 69.2747 399.867 69.6 399.334 69.824C398.811 70.048 398.251 70.16 397.654 70.16ZM402.712 70V58.576H404.152V70H402.712ZM406.259 70V58.576H407.699V70H406.259ZM411.07 70.16C410.771 70.16 410.521 70.0587 410.318 69.856C410.126 69.6427 410.03 69.392 410.03 69.104C410.03 68.8053 410.126 68.56 410.318 68.368C410.521 68.1653 410.771 68.064 411.07 68.064C411.369 68.064 411.614 68.1653 411.806 68.368C412.009 68.56 412.11 68.8053 412.11 69.104C412.11 69.392 412.009 69.6427 411.806 69.856C411.614 70.0587 411.369 70.16 411.07 70.16Z" fill="#565560"/>
<rect x="16" y="18" width="64" height="64" rx="10" fill="#3C003D"/>
<g clip-path="url(#clip0_524_8329)">
<path d="M49 57.0003H55V47.9783L48 42.5343L41 47.9783V57.0003H47V51.0003H49V57.0003ZM57 58.0003C57 58.2655 56.8946 58.5198 56.7071 58.7074C56.5196 58.8949 56.2652 59.0003 56 59.0003H40C39.7348 59.0003 39.4804 58.8949 39.2929 58.7074C39.1054 58.5198 39 58.2655 39 58.0003V47.4903C38.9999 47.3379 39.0346 47.1875 39.1015 47.0506C39.1684 46.9137 39.2657 46.7938 39.386 46.7003L47.386 40.4783C47.5615 40.3417 47.7776 40.2676 48 40.2676C48.2224 40.2676 48.4385 40.3417 48.614 40.4783L56.614 46.7003C56.7343 46.7938 56.8316 46.9137 56.8985 47.0506C56.9654 47.1875 57.0001 47.3379 57 47.4903V58.0003Z" fill="white"/>
</g>
<defs>
<clipPath id="clip0_524_8329">
<rect width="24" height="24" fill="white" transform="translate(36 38)"/>
</clipPath>
</defs>
</svg>
