<svg width="504" height="501" viewBox="0 0 504 501" fill="none" xmlns="http://www.w3.org/2000/svg">
<rect width="504" height="501" rx="20" fill="#FFF0F0"/>
<g clip-path="url(#clip0_441_8225)">
<path d="M251.997 412.833C182.5 412.833 126.164 356.497 126.164 286.999C126.164 217.502 182.5 161.166 251.997 161.166C321.495 161.166 377.831 217.502 377.831 286.999C377.831 356.497 321.495 412.833 251.997 412.833ZM251.997 387.666C278.696 387.666 304.301 377.06 323.179 358.181C342.058 339.303 352.664 313.698 352.664 286.999C352.664 260.301 342.058 234.696 323.179 215.817C304.301 196.939 278.696 186.333 251.997 186.333C225.299 186.333 199.694 196.939 180.815 215.817C161.937 234.696 151.331 260.301 151.331 286.999C151.331 313.698 161.937 339.303 180.815 358.181C199.694 377.06 225.299 387.666 251.997 387.666ZM251.997 269.207L287.583 233.608L305.388 251.414L269.79 286.999L305.388 322.585L287.583 340.39L251.997 304.792L216.412 340.39L198.606 322.585L234.205 286.999L198.606 251.414L216.412 233.608L251.997 269.207Z" fill="#DC2626"/>
</g>
<defs>
<clipPath id="clip0_441_8225">
<rect width="302" height="302" fill="white" transform="translate(101 136)"/>
</clipPath>
</defs>
</svg>
