<svg width="494" height="100" viewBox="0 0 494 100" fill="none" xmlns="http://www.w3.org/2000/svg">
<rect width="494" height="100" fill="#F3F3F4"/>
<path d="M97.36 45V30.88H100.5V45H97.36ZM109.159 45V39.46C109.159 38.9533 108.999 38.5467 108.679 38.24C108.373 37.92 107.979 37.76 107.499 37.76C107.166 37.76 106.873 37.8333 106.619 37.98C106.366 38.1133 106.166 38.3133 106.019 38.58C105.873 38.8333 105.799 39.1267 105.799 39.46L104.619 38.88C104.619 38.12 104.786 37.4533 105.119 36.88C105.453 36.3067 105.913 35.8667 106.499 35.56C107.099 35.24 107.773 35.08 108.519 35.08C109.239 35.08 109.873 35.2533 110.419 35.6C110.979 35.9333 111.419 36.38 111.739 36.94C112.059 37.5 112.219 38.1133 112.219 38.78V45H109.159ZM102.739 45V35.28H105.799V45H102.739ZM118.125 45.2C117.205 45.2 116.385 44.98 115.665 44.54C114.958 44.1 114.398 43.5 113.985 42.74C113.585 41.98 113.385 41.1133 113.385 40.14C113.385 39.1667 113.585 38.3 113.985 37.54C114.398 36.78 114.958 36.18 115.665 35.74C116.385 35.3 117.205 35.08 118.125 35.08C118.791 35.08 119.391 35.2067 119.925 35.46C120.471 35.7133 120.918 36.0667 121.265 36.52C121.625 36.96 121.825 37.4667 121.865 38.04V42.14C121.825 42.7133 121.631 43.2333 121.285 43.7C120.938 44.1533 120.491 44.52 119.945 44.8C119.398 45.0667 118.791 45.2 118.125 45.2ZM118.665 42.44C119.105 42.44 119.485 42.3467 119.805 42.16C120.125 41.96 120.378 41.6867 120.565 41.34C120.751 40.9933 120.845 40.5933 120.845 40.14C120.845 39.6867 120.751 39.2933 120.565 38.96C120.391 38.6133 120.138 38.34 119.805 38.14C119.485 37.94 119.111 37.84 118.685 37.84C118.258 37.84 117.878 37.94 117.545 38.14C117.225 38.34 116.965 38.6133 116.765 38.96C116.578 39.3067 116.485 39.7 116.485 40.14C116.485 40.58 116.578 40.9733 116.765 41.32C116.951 41.6667 117.211 41.94 117.545 42.14C117.878 42.34 118.251 42.44 118.665 42.44ZM123.725 45H120.725V42.38L121.185 40.02L120.665 37.66V30.48H123.725V45ZM125.679 45V35.28H128.739V45H125.679ZM127.219 33.94C126.739 33.94 126.339 33.78 126.019 33.46C125.713 33.1267 125.559 32.7267 125.559 32.26C125.559 31.78 125.713 31.38 126.019 31.06C126.339 30.74 126.739 30.58 127.219 30.58C127.699 30.58 128.093 30.74 128.399 31.06C128.706 31.38 128.859 31.78 128.859 32.26C128.859 32.7267 128.706 33.1267 128.399 33.46C128.093 33.78 127.699 33.94 127.219 33.94ZM133.754 45L129.634 35.28H132.934L135.734 43.38H134.294L137.094 35.28H140.334L136.214 44.98L133.754 45ZM141.236 45V35.28H144.296V45H141.236ZM142.776 33.94C142.296 33.94 141.896 33.78 141.576 33.46C141.27 33.1267 141.116 32.7267 141.116 32.26C141.116 31.78 141.27 31.38 141.576 31.06C141.896 30.74 142.296 30.58 142.776 30.58C143.256 30.58 143.65 30.74 143.956 31.06C144.263 31.38 144.416 31.78 144.416 32.26C144.416 32.7267 144.263 33.1267 143.956 33.46C143.65 33.78 143.256 33.94 142.776 33.94ZM150.391 45.2C149.471 45.2 148.651 44.98 147.931 44.54C147.224 44.1 146.664 43.5 146.251 42.74C145.851 41.98 145.651 41.1133 145.651 40.14C145.651 39.1667 145.851 38.3 146.251 37.54C146.664 36.78 147.224 36.18 147.931 35.74C148.651 35.3 149.471 35.08 150.391 35.08C151.058 35.08 151.658 35.2067 152.191 35.46C152.738 35.7133 153.184 36.0667 153.531 36.52C153.891 36.96 154.091 37.4667 154.131 38.04V42.14C154.091 42.7133 153.898 43.2333 153.551 43.7C153.204 44.1533 152.758 44.52 152.211 44.8C151.664 45.0667 151.058 45.2 150.391 45.2ZM150.931 42.44C151.371 42.44 151.751 42.3467 152.071 42.16C152.391 41.96 152.644 41.6867 152.831 41.34C153.018 40.9933 153.111 40.5933 153.111 40.14C153.111 39.6867 153.018 39.2933 152.831 38.96C152.658 38.6133 152.404 38.34 152.071 38.14C151.751 37.94 151.378 37.84 150.951 37.84C150.524 37.84 150.144 37.94 149.811 38.14C149.491 38.34 149.231 38.6133 149.031 38.96C148.844 39.3067 148.751 39.7 148.751 40.14C148.751 40.58 148.844 40.9733 149.031 41.32C149.218 41.6667 149.478 41.94 149.811 42.14C150.144 42.34 150.518 42.44 150.931 42.44ZM155.991 45H152.991V42.38L153.451 40.02L152.931 37.66V30.48H155.991V45ZM162.266 45.22C161.372 45.22 160.579 45.04 159.886 44.68C159.206 44.3067 158.672 43.8 158.286 43.16C157.899 42.5067 157.706 41.76 157.706 40.92V35.28H160.766V40.88C160.766 41.2133 160.819 41.5 160.926 41.74C161.046 41.98 161.219 42.1667 161.446 42.3C161.672 42.4333 161.946 42.5 162.266 42.5C162.719 42.5 163.079 42.36 163.346 42.08C163.612 41.7867 163.746 41.3867 163.746 40.88V35.28H166.806V40.9C166.806 41.7533 166.612 42.5067 166.226 43.16C165.839 43.8 165.306 44.3067 164.626 44.68C163.946 45.04 163.159 45.22 162.266 45.22ZM172.587 45.2C171.694 45.2 170.894 44.98 170.187 44.54C169.494 44.1 168.94 43.5 168.527 42.74C168.127 41.98 167.927 41.1133 167.927 40.14C167.927 39.1667 168.127 38.3 168.527 37.54C168.94 36.78 169.494 36.18 170.187 35.74C170.894 35.3 171.694 35.08 172.587 35.08C173.24 35.08 173.827 35.2067 174.347 35.46C174.88 35.7133 175.314 36.0667 175.647 36.52C175.98 36.96 176.167 37.4667 176.207 38.04V42.24C176.167 42.8133 175.98 43.3267 175.647 43.78C175.327 44.22 174.9 44.5667 174.367 44.82C173.834 45.0733 173.24 45.2 172.587 45.2ZM173.207 42.44C173.86 42.44 174.387 42.2267 174.787 41.8C175.187 41.36 175.387 40.8067 175.387 40.14C175.387 39.6867 175.294 39.2867 175.107 38.94C174.934 38.5933 174.68 38.3267 174.347 38.14C174.027 37.94 173.654 37.84 173.227 37.84C172.8 37.84 172.42 37.94 172.087 38.14C171.767 38.3267 171.507 38.5933 171.307 38.94C171.12 39.2867 171.027 39.6867 171.027 40.14C171.027 40.58 171.12 40.9733 171.307 41.32C171.494 41.6667 171.754 41.94 172.087 42.14C172.42 42.34 172.794 42.44 173.207 42.44ZM175.267 45V42.38L175.727 40.02L175.267 37.66V35.28H178.267V45H175.267ZM180.221 45V30.48H183.281V45H180.221Z" fill="#161518"/>
<path d="M100.832 65.488L96.464 58.896H98.208L101.728 64.288H100.944L104.48 58.896H106.192L101.792 65.488H100.832ZM100.576 70V64.496H102.08V70H100.576ZM108.809 70.16C108.063 70.16 107.391 69.984 106.793 69.632C106.196 69.28 105.721 68.8053 105.369 68.208C105.017 67.6 104.841 66.9227 104.841 66.176C104.841 65.44 105.017 64.7787 105.369 64.192C105.721 63.5947 106.196 63.12 106.793 62.768C107.391 62.416 108.063 62.24 108.809 62.24C109.545 62.24 110.212 62.416 110.809 62.768C111.417 63.1093 111.897 63.5787 112.249 64.176C112.601 64.7733 112.777 65.44 112.777 66.176C112.777 66.9227 112.601 67.6 112.249 68.208C111.897 68.8053 111.417 69.28 110.809 69.632C110.212 69.984 109.545 70.16 108.809 70.16ZM108.809 68.768C109.289 68.768 109.716 68.656 110.089 68.432C110.463 68.208 110.756 67.904 110.969 67.52C111.183 67.1253 111.289 66.6773 111.289 66.176C111.289 65.6853 111.177 65.248 110.953 64.864C110.74 64.48 110.447 64.1813 110.073 63.968C109.711 63.744 109.289 63.632 108.809 63.632C108.329 63.632 107.903 63.744 107.529 63.968C107.156 64.1813 106.863 64.48 106.649 64.864C106.436 65.248 106.329 65.6853 106.329 66.176C106.329 66.6773 106.436 67.1253 106.649 67.52C106.863 67.904 107.156 68.208 107.529 68.432C107.903 68.656 108.329 68.768 108.809 68.768ZM117.456 70.16C116.837 70.16 116.277 70.0213 115.776 69.744C115.285 69.456 114.901 69.0613 114.624 68.56C114.346 68.0587 114.208 67.4773 114.208 66.816V62.4H115.648V66.752C115.648 67.168 115.717 67.5307 115.856 67.84C116.005 68.1387 116.218 68.368 116.496 68.528C116.773 68.688 117.098 68.768 117.472 68.768C118.037 68.768 118.48 68.592 118.8 68.24C119.12 67.8773 119.28 67.3813 119.28 66.752V62.4H120.72V66.816C120.72 67.4773 120.581 68.0587 120.304 68.56C120.026 69.0613 119.642 69.456 119.152 69.744C118.672 70.0213 118.106 70.16 117.456 70.16ZM122.412 62.432L123.404 60.528L123.916 60.4C123.863 60.5173 123.794 60.6133 123.708 60.688C123.634 60.7627 123.538 60.8 123.42 60.8C123.196 60.8 122.988 60.7093 122.796 60.528C122.615 60.336 122.524 60.1013 122.524 59.824C122.524 59.5253 122.626 59.2693 122.828 59.056C123.042 58.8427 123.298 58.736 123.596 58.736C123.874 58.736 124.119 58.8427 124.332 59.056C124.546 59.2693 124.652 59.5253 124.652 59.824C124.652 59.9413 124.626 60.0853 124.572 60.256C124.53 60.416 124.439 60.6293 124.3 60.896L123.244 62.88L122.412 62.432ZM125.884 70V62.4H127.324V70H125.884ZM127.324 65.664L126.78 65.424C126.78 64.4533 127.004 63.68 127.452 63.104C127.9 62.528 128.545 62.24 129.388 62.24C129.772 62.24 130.119 62.3093 130.428 62.448C130.737 62.576 131.025 62.7947 131.292 63.104L130.348 64.08C130.188 63.9093 130.012 63.7867 129.82 63.712C129.628 63.6373 129.404 63.6 129.148 63.6C128.615 63.6 128.177 63.7707 127.836 64.112C127.495 64.4533 127.324 64.9707 127.324 65.664ZM135.576 70.16C134.819 70.16 134.136 69.9893 133.528 69.648C132.92 69.296 132.44 68.8213 132.088 68.224C131.736 67.6267 131.56 66.9493 131.56 66.192C131.56 65.4453 131.731 64.7733 132.072 64.176C132.424 63.5787 132.893 63.1093 133.48 62.768C134.077 62.416 134.744 62.24 135.48 62.24C136.184 62.24 136.803 62.4 137.336 62.72C137.88 63.04 138.301 63.4827 138.6 64.048C138.909 64.6133 139.064 65.2533 139.064 65.968C139.064 66.0747 139.059 66.192 139.048 66.32C139.037 66.4373 139.016 66.576 138.984 66.736H132.568V65.536H138.216L137.688 66C137.688 65.488 137.597 65.056 137.416 64.704C137.235 64.3413 136.979 64.064 136.648 63.872C136.317 63.6693 135.917 63.568 135.448 63.568C134.957 63.568 134.525 63.6747 134.152 63.888C133.779 64.1013 133.491 64.4 133.288 64.784C133.085 65.168 132.984 65.6213 132.984 66.144C132.984 66.6773 133.091 67.1467 133.304 67.552C133.517 67.9467 133.821 68.256 134.216 68.48C134.611 68.6933 135.064 68.8 135.576 68.8C136.003 68.8 136.392 68.7253 136.744 68.576C137.107 68.4267 137.416 68.2027 137.672 67.904L138.6 68.848C138.237 69.2747 137.789 69.6 137.256 69.824C136.733 70.048 136.173 70.16 135.576 70.16ZM143.962 70V58.576H145.402V70H143.962ZM150.981 70.16C150.234 70.16 149.562 69.984 148.965 69.632C148.368 69.28 147.893 68.8053 147.541 68.208C147.189 67.6 147.013 66.9227 147.013 66.176C147.013 65.44 147.189 64.7787 147.541 64.192C147.893 63.5947 148.368 63.12 148.965 62.768C149.562 62.416 150.234 62.24 150.981 62.24C151.717 62.24 152.384 62.416 152.981 62.768C153.589 63.1093 154.069 63.5787 154.421 64.176C154.773 64.7733 154.949 65.44 154.949 66.176C154.949 66.9227 154.773 67.6 154.421 68.208C154.069 68.8053 153.589 69.28 152.981 69.632C152.384 69.984 151.717 70.16 150.981 70.16ZM150.981 68.768C151.461 68.768 151.888 68.656 152.261 68.432C152.634 68.208 152.928 67.904 153.141 67.52C153.354 67.1253 153.461 66.6773 153.461 66.176C153.461 65.6853 153.349 65.248 153.125 64.864C152.912 64.48 152.618 64.1813 152.245 63.968C151.882 63.744 151.461 63.632 150.981 63.632C150.501 63.632 150.074 63.744 149.701 63.968C149.328 64.1813 149.034 64.48 148.821 64.864C148.608 65.248 148.501 65.6853 148.501 66.176C148.501 66.6773 148.608 67.1253 148.821 67.52C149.034 67.904 149.328 68.208 149.701 68.432C150.074 68.656 150.501 68.768 150.981 68.768ZM160.044 70.16C159.297 70.16 158.625 69.984 158.028 69.632C157.43 69.28 156.956 68.8053 156.604 68.208C156.252 67.6 156.076 66.9227 156.076 66.176C156.076 65.44 156.252 64.7787 156.604 64.192C156.956 63.5947 157.43 63.12 158.028 62.768C158.625 62.416 159.297 62.24 160.044 62.24C160.78 62.24 161.446 62.416 162.044 62.768C162.652 63.1093 163.132 63.5787 163.484 64.176C163.836 64.7733 164.012 65.44 164.012 66.176C164.012 66.9227 163.836 67.6 163.484 68.208C163.132 68.8053 162.652 69.28 162.044 69.632C161.446 69.984 160.78 70.16 160.044 70.16ZM160.044 68.768C160.524 68.768 160.95 68.656 161.324 68.432C161.697 68.208 161.99 67.904 162.204 67.52C162.417 67.1253 162.524 66.6773 162.524 66.176C162.524 65.6853 162.412 65.248 162.188 64.864C161.974 64.48 161.681 64.1813 161.308 63.968C160.945 63.744 160.524 63.632 160.044 63.632C159.564 63.632 159.137 63.744 158.764 63.968C158.39 64.1813 158.097 64.48 157.884 64.864C157.67 65.248 157.564 65.6853 157.564 66.176C157.564 66.6773 157.67 67.1253 157.884 67.52C158.097 67.904 158.39 68.208 158.764 68.432C159.137 68.656 159.564 68.768 160.044 68.768ZM170.498 70L166.946 66.112L170.466 62.4H172.21L168.29 66.496L168.354 65.664L172.354 70H170.498ZM165.634 70V58.576H167.074V70H165.634ZM173.338 70V62.4H174.778V70H173.338ZM174.058 60.88C173.791 60.88 173.572 60.7947 173.402 60.624C173.231 60.4427 173.146 60.2187 173.146 59.952C173.146 59.696 173.231 59.4827 173.402 59.312C173.572 59.1307 173.791 59.04 174.058 59.04C174.324 59.04 174.543 59.1307 174.714 59.312C174.884 59.4827 174.97 59.696 174.97 59.952C174.97 60.2187 174.884 60.4427 174.714 60.624C174.543 60.7947 174.324 60.88 174.058 60.88ZM182.276 70V65.568C182.276 64.992 182.094 64.5173 181.732 64.144C181.369 63.7707 180.9 63.584 180.324 63.584C179.94 63.584 179.598 63.6693 179.3 63.84C179.001 64.0107 178.766 64.2453 178.596 64.544C178.425 64.8427 178.34 65.184 178.34 65.568L177.748 65.232C177.748 64.656 177.876 64.144 178.132 63.696C178.388 63.248 178.745 62.896 179.204 62.64C179.662 62.3733 180.18 62.24 180.756 62.24C181.332 62.24 181.838 62.384 182.276 62.672C182.724 62.96 183.076 63.3387 183.332 63.808C183.588 64.2667 183.716 64.7573 183.716 65.28V70H182.276ZM176.9 70V62.4H178.34V70H176.9ZM188.817 73.344C188.039 73.344 187.345 73.2 186.737 72.912C186.14 72.624 185.66 72.2187 185.297 71.696L186.225 70.752C186.535 71.1467 186.903 71.4453 187.329 71.648C187.756 71.8613 188.263 71.968 188.849 71.968C189.628 71.968 190.241 71.76 190.689 71.344C191.148 70.9387 191.377 70.3893 191.377 69.696V67.808L191.633 66.096L191.377 64.4V62.4H192.817V69.696C192.817 70.4213 192.647 71.056 192.305 71.6C191.975 72.144 191.505 72.5707 190.897 72.88C190.3 73.1893 189.607 73.344 188.817 73.344ZM188.817 69.872C188.124 69.872 187.5 69.7067 186.945 69.376C186.401 69.0453 185.969 68.592 185.649 68.016C185.329 67.4293 185.169 66.7733 185.169 66.048C185.169 65.3227 185.329 64.6773 185.649 64.112C185.969 63.536 186.401 63.0827 186.945 62.752C187.5 62.4107 188.124 62.24 188.817 62.24C189.415 62.24 189.943 62.3573 190.401 62.592C190.86 62.8267 191.223 63.1573 191.489 63.584C191.767 64 191.916 64.4907 191.937 65.056V67.072C191.905 67.6267 191.751 68.1173 191.473 68.544C191.207 68.96 190.844 69.2853 190.385 69.52C189.927 69.7547 189.404 69.872 188.817 69.872ZM189.105 68.512C189.575 68.512 189.985 68.4107 190.337 68.208C190.7 68.0053 190.977 67.7227 191.169 67.36C191.361 66.9867 191.457 66.5547 191.457 66.064C191.457 65.5733 191.356 65.1467 191.153 64.784C190.961 64.4107 190.689 64.1227 190.337 63.92C189.985 63.7067 189.569 63.6 189.089 63.6C188.609 63.6 188.188 63.7067 187.825 63.92C187.463 64.1227 187.175 64.4107 186.961 64.784C186.759 65.1467 186.657 65.568 186.657 66.048C186.657 66.528 186.759 66.9547 186.961 67.328C187.175 67.7013 187.463 67.9947 187.825 68.208C188.199 68.4107 188.625 68.512 189.105 68.512ZM199.427 70V59.216H200.867V70H199.427ZM197.555 63.712V62.4H202.739V63.712H197.555ZM207.387 70.16C206.641 70.16 205.969 69.984 205.371 69.632C204.774 69.28 204.299 68.8053 203.947 68.208C203.595 67.6 203.419 66.9227 203.419 66.176C203.419 65.44 203.595 64.7787 203.947 64.192C204.299 63.5947 204.774 63.12 205.371 62.768C205.969 62.416 206.641 62.24 207.387 62.24C208.123 62.24 208.79 62.416 209.387 62.768C209.995 63.1093 210.475 63.5787 210.827 64.176C211.179 64.7733 211.355 65.44 211.355 66.176C211.355 66.9227 211.179 67.6 210.827 68.208C210.475 68.8053 209.995 69.28 209.387 69.632C208.79 69.984 208.123 70.16 207.387 70.16ZM207.387 68.768C207.867 68.768 208.294 68.656 208.667 68.432C209.041 68.208 209.334 67.904 209.547 67.52C209.761 67.1253 209.867 66.6773 209.867 66.176C209.867 65.6853 209.755 65.248 209.531 64.864C209.318 64.48 209.025 64.1813 208.651 63.968C208.289 63.744 207.867 63.632 207.387 63.632C206.907 63.632 206.481 63.744 206.107 63.968C205.734 64.1813 205.441 64.48 205.227 64.864C205.014 65.248 204.907 65.6853 204.907 66.176C204.907 66.6773 205.014 67.1253 205.227 67.52C205.441 67.904 205.734 68.208 206.107 68.432C206.481 68.656 206.907 68.768 207.387 68.768ZM215.346 73.344C214.855 73.344 214.445 73.264 214.114 73.104C213.773 72.944 213.469 72.7147 213.202 72.416L214.13 71.472C214.279 71.6533 214.445 71.7867 214.626 71.872C214.797 71.9573 215.005 72 215.25 72C215.57 72 215.847 71.8987 216.082 71.696C216.317 71.504 216.434 71.2107 216.434 70.816V62.4H217.874V70.8C217.874 71.3547 217.757 71.8187 217.522 72.192C217.287 72.5653 216.978 72.848 216.594 73.04C216.21 73.2427 215.794 73.344 215.346 73.344ZM217.17 60.88C216.914 60.88 216.701 60.7947 216.53 60.624C216.359 60.4427 216.274 60.2187 216.274 59.952C216.274 59.696 216.359 59.4827 216.53 59.312C216.701 59.1307 216.914 59.04 217.17 59.04C217.437 59.04 217.655 59.1307 217.826 59.312C217.997 59.4827 218.082 59.696 218.082 59.952C218.082 60.2187 217.997 60.4427 217.826 60.624C217.655 60.7947 217.437 60.88 217.17 60.88ZM223.049 70.16C222.431 70.16 221.871 70.0213 221.37 69.744C220.879 69.456 220.495 69.0613 220.218 68.56C219.94 68.0587 219.802 67.4773 219.802 66.816V62.4H221.242V66.752C221.242 67.168 221.311 67.5307 221.45 67.84C221.599 68.1387 221.812 68.368 222.09 68.528C222.367 68.688 222.692 68.768 223.066 68.768C223.631 68.768 224.074 68.592 224.394 68.24C224.714 67.8773 224.874 67.3813 224.874 66.752V62.4H226.314V66.816C226.314 67.4773 226.175 68.0587 225.898 68.56C225.62 69.0613 225.236 69.456 224.746 69.744C224.266 70.0213 223.7 70.16 223.049 70.16ZM230.66 70.16C230.233 70.16 229.828 70.1067 229.444 70C229.07 69.8827 228.724 69.7227 228.404 69.52C228.084 69.3067 227.806 69.056 227.572 68.768L228.5 67.84C228.777 68.1813 229.097 68.4373 229.46 68.608C229.822 68.768 230.228 68.848 230.676 68.848C231.124 68.848 231.47 68.7733 231.716 68.624C231.961 68.464 232.084 68.2453 232.084 67.968C232.084 67.6907 231.982 67.4773 231.78 67.328C231.588 67.168 231.337 67.04 231.028 66.944C230.718 66.8373 230.388 66.736 230.036 66.64C229.694 66.5333 229.369 66.4 229.06 66.24C228.75 66.08 228.494 65.8613 228.292 65.584C228.1 65.3067 228.004 64.9387 228.004 64.48C228.004 64.0213 228.116 63.6267 228.34 63.296C228.564 62.9547 228.873 62.6933 229.268 62.512C229.673 62.3307 230.158 62.24 230.724 62.24C231.321 62.24 231.849 62.3467 232.308 62.56C232.777 62.7627 233.161 63.072 233.46 63.488L232.532 64.416C232.318 64.1387 232.052 63.9253 231.732 63.776C231.422 63.6267 231.07 63.552 230.676 63.552C230.26 63.552 229.94 63.6267 229.716 63.776C229.502 63.9147 229.396 64.112 229.396 64.368C229.396 64.624 229.492 64.8213 229.684 64.96C229.876 65.0987 230.126 65.216 230.436 65.312C230.756 65.408 231.086 65.5093 231.428 65.616C231.769 65.712 232.094 65.8453 232.404 66.016C232.713 66.1867 232.964 66.416 233.156 66.704C233.358 66.992 233.46 67.3707 233.46 67.84C233.46 68.5547 233.204 69.12 232.692 69.536C232.19 69.952 231.513 70.16 230.66 70.16ZM236.24 70V59.216H237.68V70H236.24ZM234.368 63.712V62.4H239.552V63.712H234.368ZM248.29 70.16C247.714 70.16 247.192 70.0427 246.722 69.808C246.264 69.5627 245.896 69.2267 245.618 68.8C245.341 68.3733 245.186 67.888 245.154 67.344V65.056C245.186 64.5013 245.341 64.016 245.618 63.6C245.906 63.1733 246.28 62.8427 246.738 62.608C247.208 62.3627 247.725 62.24 248.29 62.24C248.984 62.24 249.608 62.416 250.162 62.768C250.728 63.12 251.17 63.5947 251.49 64.192C251.81 64.7893 251.97 65.4613 251.97 66.208C251.97 66.9547 251.81 67.6267 251.49 68.224C251.17 68.8213 250.728 69.296 250.162 69.648C249.608 69.9893 248.984 70.16 248.29 70.16ZM248.05 68.8C248.53 68.8 248.952 68.688 249.314 68.464C249.677 68.24 249.965 67.936 250.178 67.552C250.392 67.1573 250.498 66.704 250.498 66.192C250.498 65.6907 250.392 65.2427 250.178 64.848C249.965 64.4533 249.677 64.1493 249.314 63.936C248.952 63.712 248.536 63.6 248.066 63.6C247.586 63.6 247.165 63.712 246.802 63.936C246.44 64.1493 246.157 64.4533 245.954 64.848C245.752 65.2427 245.65 65.696 245.65 66.208C245.65 66.7093 245.746 67.1573 245.938 67.552C246.141 67.936 246.424 68.24 246.786 68.464C247.16 68.688 247.581 68.8 248.05 68.8ZM244.29 70V58.576H245.73V64.256L245.458 66.096L245.73 67.952V70H244.29ZM256.659 70.16C256.04 70.16 255.48 70.0213 254.979 69.744C254.488 69.456 254.104 69.0613 253.827 68.56C253.55 68.0587 253.411 67.4773 253.411 66.816V62.4H254.851V66.752C254.851 67.168 254.92 67.5307 255.059 67.84C255.208 68.1387 255.422 68.368 255.699 68.528C255.976 68.688 256.302 68.768 256.675 68.768C257.24 68.768 257.683 68.592 258.003 68.24C258.323 67.8773 258.483 67.3813 258.483 66.752V62.4H259.923V66.816C259.923 67.4773 259.784 68.0587 259.507 68.56C259.23 69.0613 258.846 69.456 258.355 69.744C257.875 70.0213 257.31 70.16 256.659 70.16ZM264.349 70.064L261.053 62.4H262.653L265.101 68.4H264.589L267.165 62.4H268.765L265.213 70.064H264.349ZM262.173 73.184L264.413 68.592L265.213 70.064L263.773 73.184H262.173ZM276.872 70.16C276.125 70.16 275.453 69.984 274.856 69.632C274.258 69.28 273.784 68.8053 273.432 68.208C273.08 67.6 272.904 66.9227 272.904 66.176C272.904 65.44 273.08 64.7787 273.432 64.192C273.784 63.5947 274.258 63.12 274.856 62.768C275.453 62.416 276.125 62.24 276.872 62.24C277.608 62.24 278.274 62.416 278.872 62.768C279.48 63.1093 279.96 63.5787 280.312 64.176C280.664 64.7733 280.84 65.44 280.84 66.176C280.84 66.9227 280.664 67.6 280.312 68.208C279.96 68.8053 279.48 69.28 278.872 69.632C278.274 69.984 277.608 70.16 276.872 70.16ZM276.872 68.768C277.352 68.768 277.778 68.656 278.152 68.432C278.525 68.208 278.818 67.904 279.032 67.52C279.245 67.1253 279.352 66.6773 279.352 66.176C279.352 65.6853 279.24 65.248 279.016 64.864C278.802 64.48 278.509 64.1813 278.136 63.968C277.773 63.744 277.352 63.632 276.872 63.632C276.392 63.632 275.965 63.744 275.592 63.968C275.218 64.1813 274.925 64.48 274.712 64.864C274.498 65.248 274.392 65.6853 274.392 66.176C274.392 66.6773 274.498 67.1253 274.712 67.52C274.925 67.904 275.218 68.208 275.592 68.432C275.965 68.656 276.392 68.768 276.872 68.768ZM282.462 70V62.4H283.902V70H282.462ZM283.902 65.664L283.358 65.424C283.358 64.4533 283.582 63.68 284.03 63.104C284.478 62.528 285.124 62.24 285.966 62.24C286.35 62.24 286.697 62.3093 287.006 62.448C287.316 62.576 287.604 62.7947 287.87 63.104L286.926 64.08C286.766 63.9093 286.59 63.7867 286.398 63.712C286.206 63.6373 285.982 63.6 285.726 63.6C285.193 63.6 284.756 63.7707 284.414 64.112C284.073 64.4533 283.902 64.9707 283.902 65.664ZM292.493 70V62.4H293.934V70H292.493ZM293.934 65.664L293.39 65.424C293.39 64.4533 293.614 63.68 294.062 63.104C294.51 62.528 295.155 62.24 295.998 62.24C296.382 62.24 296.728 62.3093 297.038 62.448C297.347 62.576 297.635 62.7947 297.902 63.104L296.958 64.08C296.798 63.9093 296.622 63.7867 296.43 63.712C296.238 63.6373 296.014 63.6 295.758 63.6C295.224 63.6 294.787 63.7707 294.446 64.112C294.104 64.4533 293.934 64.9707 293.934 65.664ZM302.185 70.16C301.428 70.16 300.745 69.9893 300.137 69.648C299.529 69.296 299.049 68.8213 298.697 68.224C298.345 67.6267 298.169 66.9493 298.169 66.192C298.169 65.4453 298.34 64.7733 298.681 64.176C299.033 63.5787 299.503 63.1093 300.089 62.768C300.687 62.416 301.353 62.24 302.089 62.24C302.793 62.24 303.412 62.4 303.945 62.72C304.489 63.04 304.911 63.4827 305.209 64.048C305.519 64.6133 305.673 65.2533 305.673 65.968C305.673 66.0747 305.668 66.192 305.657 66.32C305.647 66.4373 305.625 66.576 305.593 66.736H299.177V65.536H304.825L304.297 66C304.297 65.488 304.207 65.056 304.025 64.704C303.844 64.3413 303.588 64.064 303.257 63.872C302.927 63.6693 302.527 63.568 302.057 63.568C301.567 63.568 301.135 63.6747 300.761 63.888C300.388 64.1013 300.1 64.4 299.897 64.784C299.695 65.168 299.593 65.6213 299.593 66.144C299.593 66.6773 299.7 67.1467 299.913 67.552C300.127 67.9467 300.431 68.256 300.825 68.48C301.22 68.6933 301.673 68.8 302.185 68.8C302.612 68.8 303.001 68.7253 303.353 68.576C303.716 68.4267 304.025 68.2027 304.281 67.904L305.209 68.848C304.847 69.2747 304.399 69.6 303.865 69.824C303.343 70.048 302.783 70.16 302.185 70.16ZM312.62 70V65.568C312.62 64.992 312.438 64.5173 312.076 64.144C311.713 63.7707 311.244 63.584 310.668 63.584C310.284 63.584 309.942 63.6693 309.644 63.84C309.345 64.0107 309.11 64.2453 308.94 64.544C308.769 64.8427 308.684 65.184 308.684 65.568L308.092 65.232C308.092 64.656 308.22 64.144 308.476 63.696C308.732 63.248 309.089 62.896 309.548 62.64C310.006 62.3733 310.524 62.24 311.1 62.24C311.676 62.24 312.182 62.384 312.62 62.672C313.068 62.96 313.42 63.3387 313.676 63.808C313.932 64.2667 314.06 64.7573 314.06 65.28V70H312.62ZM307.243 70V62.4H308.684V70H307.243ZM317.083 70V59.216H318.523V70H317.083ZM315.211 63.712V62.4H320.395V63.712H315.211ZM328.366 70.16C327.673 70.16 327.043 69.9893 326.478 69.648C325.913 69.296 325.465 68.8213 325.134 68.224C324.814 67.6267 324.654 66.9547 324.654 66.208C324.654 65.4613 324.814 64.7893 325.134 64.192C325.465 63.5947 325.907 63.12 326.462 62.768C327.027 62.416 327.662 62.24 328.366 62.24C328.942 62.24 329.454 62.3627 329.902 62.608C330.361 62.8427 330.729 63.1733 331.006 63.6C331.283 64.016 331.438 64.5013 331.47 65.056V67.344C331.438 67.888 331.283 68.3733 331.006 68.8C330.739 69.2267 330.377 69.5627 329.918 69.808C329.47 70.0427 328.953 70.16 328.366 70.16ZM328.606 68.8C329.321 68.8 329.897 68.56 330.334 68.08C330.771 67.5893 330.99 66.9653 330.99 66.208C330.99 65.6853 330.889 65.232 330.686 64.848C330.494 64.4533 330.217 64.1493 329.854 63.936C329.491 63.712 329.07 63.6 328.59 63.6C328.11 63.6 327.683 63.712 327.31 63.936C326.947 64.16 326.659 64.4693 326.446 64.864C326.243 65.248 326.142 65.6907 326.142 66.192C326.142 66.704 326.243 67.1573 326.446 67.552C326.659 67.936 326.953 68.24 327.326 68.464C327.699 68.688 328.126 68.8 328.606 68.8ZM330.894 70V67.952L331.166 66.096L330.894 64.256V62.4H332.35V70H330.894ZM341.775 70.16C341.199 70.16 340.676 70.0427 340.207 69.808C339.748 69.5627 339.38 69.2267 339.103 68.8C338.825 68.3733 338.671 67.888 338.639 67.344V65.056C338.671 64.5013 338.825 64.016 339.103 63.6C339.391 63.1733 339.764 62.8427 340.223 62.608C340.692 62.3627 341.209 62.24 341.775 62.24C342.468 62.24 343.092 62.416 343.647 62.768C344.212 63.12 344.655 63.5947 344.975 64.192C345.295 64.7893 345.455 65.4613 345.455 66.208C345.455 66.9547 345.295 67.6267 344.975 68.224C344.655 68.8213 344.212 69.296 343.647 69.648C343.092 69.9893 342.468 70.16 341.775 70.16ZM341.535 68.8C342.015 68.8 342.436 68.688 342.799 68.464C343.161 68.24 343.449 67.936 343.663 67.552C343.876 67.1573 343.983 66.704 343.983 66.192C343.983 65.6907 343.876 65.2427 343.663 64.848C343.449 64.4533 343.161 64.1493 342.799 63.936C342.436 63.712 342.02 63.6 341.551 63.6C341.071 63.6 340.649 63.712 340.287 63.936C339.924 64.1493 339.641 64.4533 339.439 64.848C339.236 65.2427 339.135 65.696 339.135 66.208C339.135 66.7093 339.231 67.1573 339.423 67.552C339.625 67.936 339.908 68.24 340.271 68.464C340.644 68.688 341.065 68.8 341.535 68.8ZM337.775 73.184V62.4H339.215V64.4L338.943 66.24L339.215 68.096V73.184H337.775ZM347.087 70V62.4H348.527V70H347.087ZM348.527 65.664L347.983 65.424C347.983 64.4533 348.207 63.68 348.655 63.104C349.103 62.528 349.749 62.24 350.591 62.24C350.975 62.24 351.322 62.3093 351.631 62.448C351.941 62.576 352.229 62.7947 352.495 63.104L351.551 64.08C351.391 63.9093 351.215 63.7867 351.023 63.712C350.831 63.6373 350.607 63.6 350.351 63.6C349.818 63.6 349.381 63.7707 349.039 64.112C348.698 64.4533 348.527 64.9707 348.527 65.664ZM356.731 70.16C355.984 70.16 355.312 69.984 354.715 69.632C354.118 69.28 353.643 68.8053 353.291 68.208C352.939 67.6 352.763 66.9227 352.763 66.176C352.763 65.44 352.939 64.7787 353.291 64.192C353.643 63.5947 354.118 63.12 354.715 62.768C355.312 62.416 355.984 62.24 356.731 62.24C357.467 62.24 358.134 62.416 358.731 62.768C359.339 63.1093 359.819 63.5787 360.171 64.176C360.523 64.7733 360.699 65.44 360.699 66.176C360.699 66.9227 360.523 67.6 360.171 68.208C359.819 68.8053 359.339 69.28 358.731 69.632C358.134 69.984 357.467 70.16 356.731 70.16ZM356.731 68.768C357.211 68.768 357.638 68.656 358.011 68.432C358.384 68.208 358.678 67.904 358.891 67.52C359.104 67.1253 359.211 66.6773 359.211 66.176C359.211 65.6853 359.099 65.248 358.875 64.864C358.662 64.48 358.368 64.1813 357.995 63.968C357.632 63.744 357.211 63.632 356.731 63.632C356.251 63.632 355.824 63.744 355.451 63.968C355.078 64.1813 354.784 64.48 354.571 64.864C354.358 65.248 354.251 65.6853 354.251 66.176C354.251 66.6773 354.358 67.1253 354.571 67.52C354.784 67.904 355.078 68.208 355.451 68.432C355.824 68.656 356.251 68.768 356.731 68.768ZM366.322 70.16C365.746 70.16 365.223 70.0427 364.754 69.808C364.295 69.5627 363.927 69.2267 363.65 68.8C363.372 68.3733 363.218 67.888 363.186 67.344V65.056C363.218 64.5013 363.372 64.016 363.65 63.6C363.938 63.1733 364.311 62.8427 364.77 62.608C365.239 62.3627 365.756 62.24 366.322 62.24C367.015 62.24 367.639 62.416 368.194 62.768C368.759 63.12 369.202 63.5947 369.522 64.192C369.842 64.7893 370.002 65.4613 370.002 66.208C370.002 66.9547 369.842 67.6267 369.522 68.224C369.202 68.8213 368.759 69.296 368.194 69.648C367.639 69.9893 367.015 70.16 366.322 70.16ZM366.082 68.8C366.562 68.8 366.983 68.688 367.346 68.464C367.708 68.24 367.996 67.936 368.21 67.552C368.423 67.1573 368.53 66.704 368.53 66.192C368.53 65.6907 368.423 65.2427 368.21 64.848C367.996 64.4533 367.708 64.1493 367.346 63.936C366.983 63.712 366.567 63.6 366.098 63.6C365.618 63.6 365.196 63.712 364.834 63.936C364.471 64.1493 364.188 64.4533 363.986 64.848C363.783 65.2427 363.682 65.696 363.682 66.208C363.682 66.7093 363.778 67.1573 363.97 67.552C364.172 67.936 364.455 68.24 364.818 68.464C365.191 68.688 365.612 68.8 366.082 68.8ZM362.322 73.184V62.4H363.762V64.4L363.49 66.24L363.762 68.096V73.184H362.322ZM375.154 70.16C374.397 70.16 373.714 69.9893 373.106 69.648C372.498 69.296 372.018 68.8213 371.666 68.224C371.314 67.6267 371.138 66.9493 371.138 66.192C371.138 65.4453 371.309 64.7733 371.65 64.176C372.002 63.5787 372.471 63.1093 373.058 62.768C373.655 62.416 374.322 62.24 375.058 62.24C375.762 62.24 376.381 62.4 376.914 62.72C377.458 63.04 377.879 63.4827 378.178 64.048C378.487 64.6133 378.642 65.2533 378.642 65.968C378.642 66.0747 378.637 66.192 378.626 66.32C378.615 66.4373 378.594 66.576 378.562 66.736H372.146V65.536H377.794L377.266 66C377.266 65.488 377.175 65.056 376.994 64.704C376.813 64.3413 376.557 64.064 376.226 63.872C375.895 63.6693 375.495 63.568 375.026 63.568C374.535 63.568 374.103 63.6747 373.73 63.888C373.357 64.1013 373.069 64.4 372.866 64.784C372.663 65.168 372.562 65.6213 372.562 66.144C372.562 66.6773 372.669 67.1467 372.882 67.552C373.095 67.9467 373.399 68.256 373.794 68.48C374.189 68.6933 374.642 68.8 375.154 68.8C375.581 68.8 375.97 68.7253 376.322 68.576C376.685 68.4267 376.994 68.2027 377.25 67.904L378.178 68.848C377.815 69.2747 377.367 69.6 376.834 69.824C376.311 70.048 375.751 70.16 375.154 70.16ZM380.212 70V62.4H381.652V70H380.212ZM381.652 65.664L381.108 65.424C381.108 64.4533 381.332 63.68 381.78 63.104C382.228 62.528 382.874 62.24 383.716 62.24C384.1 62.24 384.447 62.3093 384.756 62.448C385.066 62.576 385.354 62.7947 385.62 63.104L384.676 64.08C384.516 63.9093 384.34 63.7867 384.148 63.712C383.956 63.6373 383.732 63.6 383.476 63.6C382.943 63.6 382.506 63.7707 382.164 64.112C381.823 64.4533 381.652 64.9707 381.652 65.664ZM387.771 70V59.216H389.211V70H387.771ZM385.899 63.712V62.4H391.083V63.712H385.899ZM394.99 70.064L391.694 62.4H393.294L395.742 68.4H395.23L397.806 62.4H399.406L395.854 70.064H394.99ZM392.814 73.184L395.054 68.592L395.854 70.064L394.414 73.184H392.814ZM400.883 70.16C400.584 70.16 400.333 70.0587 400.131 69.856C399.939 69.6427 399.843 69.392 399.843 69.104C399.843 68.8053 399.939 68.56 400.131 68.368C400.333 68.1653 400.584 68.064 400.883 68.064C401.181 68.064 401.427 68.1653 401.619 68.368C401.821 68.56 401.923 68.8053 401.923 69.104C401.923 69.392 401.821 69.6427 401.619 69.856C401.427 70.0587 401.181 70.16 400.883 70.16Z" fill="#565560"/>
<rect x="16.5" y="18.5" width="63" height="63" rx="9.5" fill="#E4CCE5"/>
<g clip-path="url(#clip0_524_8323)">
<path d="M40 60C40 57.8783 40.8429 55.8434 42.3431 54.3431C43.8434 52.8429 45.8783 52 48 52C50.1217 52 52.1566 52.8429 53.6569 54.3431C55.1571 55.8434 56 57.8783 56 60H54C54 58.4087 53.3679 56.8826 52.2426 55.7574C51.1174 54.6321 49.5913 54 48 54C46.4087 54 44.8826 54.6321 43.7574 55.7574C42.6321 56.8826 42 58.4087 42 60H40ZM48 51C44.685 51 42 48.315 42 45C42 41.685 44.685 39 48 39C51.315 39 54 41.685 54 45C54 48.315 51.315 51 48 51ZM48 49C50.21 49 52 47.21 52 45C52 42.79 50.21 41 48 41C45.79 41 44 42.79 44 45C44 47.21 45.79 49 48 49Z" fill="#3C003D"/>
</g>
<rect x="16.5" y="18.5" width="63" height="63" rx="9.5" stroke="#280029"/>
<defs>
<clipPath id="clip0_524_8323">
<rect width="24" height="24" fill="white" transform="translate(36 38)"/>
</clipPath>
</defs>
</svg>
