<svg width="20" height="20" viewBox="0 0 20 20" fill="none" xmlns="http://www.w3.org/2000/svg">
<path d="M2.00059 18V12C2.00059 9.87827 2.84345 7.84344 4.34374 6.34315C5.84403 4.84285 7.87886 4 10.0006 4C12.1223 4 14.1572 4.84285 15.6574 6.34315C17.1577 7.84344 18.0006 9.87827 18.0006 12V18H19.0006V20H1.00059V18H2.00059ZM4.00059 18H16.0006V12C16.0006 10.4087 15.3685 8.88258 14.2432 7.75736C13.118 6.63214 11.5919 6 10.0006 6C8.40929 6 6.88317 6.63214 5.75795 7.75736C4.63273 8.88258 4.00059 10.4087 4.00059 12V18ZM9.00059 0H11.0006V3H9.00059V0ZM17.7786 2.808L19.1926 4.222L17.0726 6.343L15.6576 4.929L17.7786 2.808ZM0.808594 4.222L2.22259 2.808L4.34359 4.928L2.93059 6.344L0.808594 4.222ZM5.00059 12C5.00059 10.6739 5.52738 9.40215 6.46506 8.46447C7.40274 7.52678 8.67451 7 10.0006 7V9C9.20494 9 8.44188 9.31607 7.87927 9.87868C7.31666 10.4413 7.00059 11.2044 7.00059 12H5.00059Z" fill="#D97706"/>
</svg>
