<svg width="28" height="28" viewBox="0 0 28 28" fill="none" xmlns="http://www.w3.org/2000/svg">
<path d="M13.9974 27.3334C6.6334 27.3334 0.664062 21.3641 0.664062 14.0001C0.664062 6.63608 6.6334 0.666748 13.9974 0.666748C21.3614 0.666748 27.3307 6.63608 27.3307 14.0001C27.3307 21.3641 21.3614 27.3334 13.9974 27.3334ZM13.9974 24.6667C16.8264 24.6667 19.5395 23.5429 21.5399 21.5426C23.5403 19.5422 24.6641 16.8291 24.6641 14.0001C24.6641 11.1711 23.5403 8.458 21.5399 6.45761C19.5395 4.45722 16.8264 3.33341 13.9974 3.33341C11.1684 3.33341 8.45531 4.45722 6.45492 6.45761C4.45454 8.458 3.33073 11.1711 3.33073 14.0001C3.33073 16.8291 4.45454 19.5422 6.45492 21.5426C8.45531 23.5429 11.1684 24.6667 13.9974 24.6667ZM13.9974 12.1147L17.7681 8.34275L19.6547 10.2294L15.8827 14.0001L19.6547 17.7707L17.7681 19.6574L13.9974 15.8854L10.2267 19.6574L8.34006 17.7707L12.1121 14.0001L8.34006 10.2294L10.2267 8.34275L13.9974 12.1147Z" fill="#B1B0B9"/>
</svg>
