<svg width="64" height="64" viewBox="0 0 64 64" fill="none" xmlns="http://www.w3.org/2000/svg">
<rect width="64" height="64" rx="10" fill="#3C003D"/>
<g clip-path="url(#clip0_2755_14032)">
<path d="M32 34V36C30.4087 36 28.8826 36.6321 27.7574 37.7574C26.6321 38.8826 26 40.4087 26 42H24C24 39.8783 24.8429 37.8434 26.3431 36.3431C27.8434 34.8429 29.8783 34 32 34ZM32 33C28.685 33 26 30.315 26 27C26 23.685 28.685 21 32 21C35.315 21 38 23.685 38 27C38 30.315 35.315 33 32 33ZM32 31C34.21 31 36 29.21 36 27C36 24.79 34.21 23 32 23C29.79 23 28 24.79 28 27C28 29.21 29.79 31 32 31ZM40.828 41.071L38 44L35.172 41.071C33.609 39.453 33.609 36.831 35.172 35.213C35.5366 34.8298 35.9754 34.5248 36.4615 34.3163C36.9476 34.1079 37.4711 34.0004 38 34.0004C38.5289 34.0004 39.0524 34.1079 39.5385 34.3163C40.0246 34.5248 40.4633 34.8298 40.828 35.213C42.391 36.831 42.391 39.453 40.828 41.071ZM39.39 39.681C40.203 38.839 40.203 37.445 39.39 36.603C39.2119 36.4127 38.9966 36.2611 38.7575 36.1574C38.5184 36.0537 38.2606 36.0002 38 36.0002C37.7394 36.0002 37.4816 36.0537 37.2425 36.1574C37.0034 36.2611 36.7881 36.4127 36.61 36.603C35.797 37.445 35.797 38.839 36.61 39.682L38 41.12L39.39 39.68V39.681Z" fill="white"/>
</g>
<defs>
<clipPath id="clip0_2755_14032">
<rect width="24" height="24" fill="white" transform="translate(20 20)"/>
</clipPath>
</defs>
</svg>
