<svg width="504" height="573" viewBox="0 0 504 573" fill="none" xmlns="http://www.w3.org/2000/svg">
<rect width="504" height="573" rx="20" fill="#FFF0F0"/>
<g clip-path="url(#clip0_441_8171)">
<path d="M251.5 417.75C179.011 417.75 120.25 358.989 120.25 286.5C120.25 214.011 179.011 155.25 251.5 155.25C323.989 155.25 382.75 214.011 382.75 286.5C382.75 358.989 323.989 417.75 251.5 417.75ZM251.5 391.5C279.348 391.5 306.055 380.438 325.746 360.746C345.438 341.055 356.5 314.348 356.5 286.5C356.5 258.652 345.438 231.945 325.746 212.254C306.055 192.562 279.348 181.5 251.5 181.5C223.652 181.5 196.945 192.562 177.254 212.254C157.562 231.945 146.5 258.652 146.5 286.5C146.5 314.348 157.562 341.055 177.254 360.746C196.945 380.438 223.652 391.5 251.5 391.5ZM238.414 339L182.725 283.311L201.284 264.752L238.414 301.882L312.649 227.634L331.221 246.193L238.414 339Z" fill="#0FB56D"/>
</g>
<defs>
<clipPath id="clip0_441_8171">
<rect width="315" height="315" fill="white" transform="translate(94 129)"/>
</clipPath>
</defs>
</svg>
