<svg width="19" height="19" viewBox="0 0 19 19" fill="none" xmlns="http://www.w3.org/2000/svg">
<path fill-rule="evenodd" clip-rule="evenodd" d="M0.5 5.70471C0.5 2.94371 2.739 0.704712 5.5 0.704712H13.5C16.261 0.704712 18.5 2.94371 18.5 5.70471V13.7047C18.5 16.4657 16.261 18.7047 13.5 18.7047H5.5C2.739 18.7047 0.5 16.4657 0.5 13.7047V5.70471ZM16.5 3.70471C16.5 3.15271 16.052 2.70471 15.5 2.70471C14.948 2.70471 14.5 3.15271 14.5 3.70471C14.5 4.25671 14.948 4.70471 15.5 4.70471C16.052 4.70471 16.5 4.25671 16.5 3.70471ZM9.5 4.70471C12.261 4.70471 14.5 6.94371 14.5 9.70471C14.5 12.4657 12.261 14.7047 9.5 14.7047C6.739 14.7047 4.5 12.4657 4.5 9.70471C4.5 6.94371 6.739 4.70471 9.5 4.70471ZM6.5 9.70471C6.5 8.04786 7.84315 6.70471 9.5 6.70471C11.1569 6.70471 12.5 8.04786 12.5 9.70471C12.5 11.3616 11.1569 12.7047 9.5 12.7047C7.84315 12.7047 6.5 11.3616 6.5 9.70471Z" fill="#161518"/>
</svg>
