<svg width="19" height="19" viewBox="0 0 19 19" fill="none" xmlns="http://www.w3.org/2000/svg">
<path fill-rule="evenodd" clip-rule="evenodd" d="M2.5 0.704712H16.5C17.605 0.704712 18.5 1.59971 18.5 2.70471V16.7047C18.5 17.8097 17.605 18.7047 16.5 18.7047H2.5C1.395 18.7047 0.5 17.8097 0.5 16.7047V2.70471C0.5 1.59971 1.395 0.704712 2.5 0.704712ZM3.977 14.7047H6.5V7.70471H3.977V14.7047ZM5.194 6.42171C4.423 6.42171 3.908 5.90771 3.908 5.22171C3.908 4.53571 4.422 4.02171 5.279 4.02171C6.05 4.02171 6.565 4.53571 6.565 5.22171C6.565 5.90771 6.051 6.42171 5.194 6.42171ZM13.058 14.7047H15.5V10.8787C15.5 8.68171 14.523 7.70471 13.302 7.70471C12.081 7.70471 11.43 8.11171 11.105 8.68171V7.70471H8.582V14.7047H11.105V10.8787C11.105 9.73971 11.919 9.57671 12.163 9.57671C12.407 9.57671 13.058 9.82071 13.058 10.8787V14.7047Z" fill="#161518"/>
</svg>
