<svg width="18" height="17" viewBox="0 0 18 17" fill="none" xmlns="http://www.w3.org/2000/svg">
<path d="M9.09 13.5731L9 13.6603L8.901 13.5731C4.626 9.81507 1.8 7.33006 1.8 4.81017C1.8 3.0663 3.15 1.7584 4.95 1.7584C6.336 1.7584 7.686 2.63033 8.163 3.81616H9.837C10.314 2.63033 11.664 1.7584 13.05 1.7584C14.85 1.7584 16.2 3.0663 16.2 4.81017C16.2 7.33006 13.374 9.81507 9.09 13.5731ZM13.05 0.0145264C11.484 0.0145264 9.981 0.720793 9 1.82815C8.019 0.720793 6.516 0.0145264 4.95 0.0145264C2.178 0.0145264 0 2.11589 0 4.81017C0 8.09736 3.06 10.7916 7.695 14.8636L9 16.0145L10.305 14.8636C14.94 10.7916 18 8.09736 18 4.81017C18 2.11589 15.822 0.0145264 13.05 0.0145264Z" fill="#999999"/>
</svg>
