<svg width="64" height="64" viewBox="0 0 64 64" fill="none" xmlns="http://www.w3.org/2000/svg">
<rect width="64" height="64" rx="10" fill="#3C003D"/>
<g clip-path="url(#clip0_2755_14336)">
<path d="M33 39.0003H39V29.9783L32 24.5343L25 29.9783V39.0003H31V33.0003H33V39.0003ZM41 40.0003C41 40.2655 40.8946 40.5198 40.7071 40.7074C40.5196 40.8949 40.2652 41.0003 40 41.0003H24C23.7348 41.0003 23.4804 40.8949 23.2929 40.7074C23.1054 40.5198 23 40.2655 23 40.0003V29.4903C22.9999 29.3379 23.0346 29.1875 23.1015 29.0506C23.1684 28.9137 23.2657 28.7938 23.386 28.7003L31.386 22.4783C31.5615 22.3417 31.7776 22.2676 32 22.2676C32.2224 22.2676 32.4385 22.3417 32.614 22.4783L40.614 28.7003C40.7343 28.7938 40.8316 28.9137 40.8985 29.0506C40.9654 29.1875 41.0001 29.3379 41 29.4903V40.0003Z" fill="white"/>
</g>
<defs>
<clipPath id="clip0_2755_14336">
<rect width="24" height="24" fill="white" transform="translate(20 20)"/>
</clipPath>
</defs>
</svg>
