<svg width="12" height="15" viewBox="0 0 12 15" fill="none" xmlns="http://www.w3.org/2000/svg">
<path d="M6.00169 4.66667L7.41235 8.05867L11.0737 8.352L8.28435 10.7413L9.13635 14.3147L6.00169 12.4L2.86702 14.3147L3.71902 10.7413L0.929688 8.352L4.59102 8.05867L6.00169 4.66667ZM6.00169 8.138L5.50902 9.32267L4.23169 9.42467L5.20502 10.2587L4.90702 11.506L6.00169 10.8373L7.09569 11.506L6.79835 10.2593L7.77102 9.42467L6.49435 9.32267L6.00169 8.138ZM3.33502 0.333336V6.33334H2.00169V0.333336H3.33502ZM10.0017 0.333336V6.33334H8.66835V0.333336H10.0017ZM6.66835 0.333336V3.66667H5.33502V0.333336H6.66835Z" fill="#565560"/>
</svg>
