<svg width="19" height="15" viewBox="0 0 19 15" fill="none" xmlns="http://www.w3.org/2000/svg">
<path d="M18.5 0.704712C17.798 1.10981 16.3895 1.6619 15.5615 1.82114C15.5372 1.82727 15.5174 1.83514 15.494 1.84127C14.7623 1.13956 13.7597 0.704712 12.65 0.704712C10.4135 0.704712 8.6 2.46773 8.6 4.64197C8.6 4.75658 8.5901 4.96745 8.6 5.07944C5.5823 5.07944 3.2855 3.54303 1.6385 1.57966C1.4594 2.01713 1.3811 2.70834 1.3811 3.35755C1.3811 4.58334 2.3666 5.78727 3.9011 6.5336C3.6185 6.60447 3.3071 6.65522 2.9831 6.65522C2.4602 6.65522 1.9067 6.52135 1.4 6.11537C1.4 6.13025 1.4 6.14425 1.4 6.16C1.4 7.87314 3.2702 9.03944 4.9334 9.36405C4.5959 9.55741 3.9155 9.57666 3.5834 9.57666C3.3494 9.57666 2.5214 9.47254 2.3 9.43229C2.7626 10.8366 4.4312 11.6258 6.0215 11.6538C4.7777 12.6022 3.9146 12.9539 1.3676 12.9539H0.5C2.1092 13.9566 4.1585 14.7047 6.2123 14.7047C12.8993 14.7047 16.7 9.7499 16.7 5.07944C16.7 5.00419 16.6982 4.8467 16.6955 4.68834C16.6955 4.67259 16.7 4.65771 16.7 4.64197C16.7 4.61834 16.6928 4.59559 16.6928 4.57197C16.6901 4.45298 16.6874 4.34186 16.6847 4.28411C17.3957 3.78539 18.0122 3.16331 18.5 2.4546C17.8475 2.73634 17.1473 2.92532 16.412 3.01107C17.1626 2.5736 18.2291 1.53066 18.5 0.704712Z" fill="#161518"/>
</svg>
