<svg width="64" height="64" viewBox="0 0 64 64" fill="none" xmlns="http://www.w3.org/2000/svg">
<rect x="0.5" y="0.5" width="63" height="63" rx="9.5" fill="#E4CCE5"/>
<g clip-path="url(#clip0_2755_10857)">
<path d="M24 42C24 39.8783 24.8429 37.8434 26.3431 36.3431C27.8434 34.8429 29.8783 34 32 34C34.1217 34 36.1566 34.8429 37.6569 36.3431C39.1571 37.8434 40 39.8783 40 42H38C38 40.4087 37.3679 38.8826 36.2426 37.7574C35.1174 36.6321 33.5913 36 32 36C30.4087 36 28.8826 36.6321 27.7574 37.7574C26.6321 38.8826 26 40.4087 26 42H24ZM32 33C28.685 33 26 30.315 26 27C26 23.685 28.685 21 32 21C35.315 21 38 23.685 38 27C38 30.315 35.315 33 32 33ZM32 31C34.21 31 36 29.21 36 27C36 24.79 34.21 23 32 23C29.79 23 28 24.79 28 27C28 29.21 29.79 31 32 31Z" fill="#3C003D"/>
</g>
<rect x="0.5" y="0.5" width="63" height="63" rx="9.5" stroke="#280029"/>
<defs>
<clipPath id="clip0_2755_10857">
<rect width="24" height="24" fill="white" transform="translate(20 20)"/>
</clipPath>
</defs>
</svg>
