<svg width="71" height="72" viewBox="0 0 71 72" fill="none" xmlns="http://www.w3.org/2000/svg">
<rect y="0.5" width="71" height="71" rx="5.40952" fill="#8F2A91"/>
<path d="M34.1143 17.4219L34.7773 17.7534L35.1916 18.002L35.606 17.7534L36.269 17.4219V46.2626H34.1143V17.4219Z" fill="#FBFBFC"/>
<path d="M36.9316 20.1568L39.0864 19.2451V44.5222L36.9316 45.7653V20.1568Z" fill="#FBFBFC"/>
<path d="M33.4512 20.1568L31.2964 19.2451V44.5222L33.4512 45.7653V20.1568Z" fill="#FBFBFC"/>
<path d="M39.749 24.0519L41.9038 23.2231V42.8647L39.749 44.1078V24.0519Z" fill="#FBFBFC"/>
<path d="M30.6328 24.0519L28.478 23.2231V42.8647L30.6328 44.1078V24.0519Z" fill="#FBFBFC"/>
<path d="M34.8594 14.0239L35.5224 14.7698V18.1677H34.8594V14.0239Z" fill="#FBFBFC"/>
<path d="M27.6494 35.0743V32.8367C27.6494 32.8367 23.3398 35.9031 22.594 36.649C21.8481 37.3948 22.1797 38.3061 22.594 38.7208C23.0083 39.1356 28.4782 42.8646 28.4782 42.8646V40.4612C28.4782 40.4612 24.4998 38.5551 24.4998 37.5606C24.4998 36.9805 27.6494 35.0743 27.6494 35.0743Z" fill="#FBFBFC"/>
<path d="M42.7334 35.0743V32.8367C42.7334 32.8367 47.043 35.9031 47.7888 36.649C48.5347 37.3948 48.2032 38.3061 47.7888 38.7208C47.3745 39.1356 41.9046 42.8646 41.9046 42.8646V40.4612C41.9046 40.4612 45.883 38.5551 45.883 37.5606C45.883 36.9805 42.7334 35.0743 42.7334 35.0743Z" fill="#FBFBFC"/>
<path d="M6.16915 57.4229V49.8231H9.48045C10.3779 49.8231 11.0909 50.0548 11.6192 50.518C12.1476 50.9812 12.4118 51.5638 12.4118 52.2659C12.4118 52.8232 12.2381 53.3154 11.8906 53.7424C11.5505 54.1622 11.0728 54.4481 10.4576 54.6001L12.3575 57.4229H10.8918L9.10046 54.7087H7.41767V57.4229H6.16915ZM7.41767 53.5144H9.48045C10.5661 53.5144 11.109 53.0983 11.109 52.2659C11.109 51.4336 10.5661 51.0174 9.48045 51.0174H7.41767V53.5144ZM14.7506 57.4229V49.8231H20.2333V51.0174H15.9991V52.9716H19.419V54.1658H15.9991V56.2286H20.2333V57.4229H14.7506ZM22.4627 57.4229V49.8231H24.2541L27.5654 55.8486H27.6739L27.5654 54.9258V49.8231H28.8139V57.4229H27.0225L23.7112 51.3974H23.6027L23.7112 52.3202V57.4229H22.4627ZM30.7639 51.0174V49.8231H37.0065V51.0174H34.5094V57.4229H33.2609V51.0174H30.7639ZM38.9577 57.4229V49.8231H42.269C43.1665 49.8231 43.8794 50.0548 44.4078 50.518C44.9361 50.9812 45.2003 51.5638 45.2003 52.2659C45.2003 52.8232 45.0266 53.3154 44.6792 53.7424C44.339 54.1622 43.8613 54.4481 43.2461 54.6001L45.146 57.4229H43.6804L41.889 54.7087H40.2062V57.4229H38.9577ZM40.2062 53.5144H42.269C43.3547 53.5144 43.8975 53.0983 43.8975 52.2659C43.8975 51.4336 43.3547 51.0174 42.269 51.0174H40.2062V53.5144ZM47.5392 57.4229V49.8231H48.7877V57.4229H47.5392ZM50.7406 51.0174V49.8231H56.9833V51.0174H54.4862V57.4229H53.2377V51.0174H50.7406ZM58.9345 57.4229V49.8231H64.4171V51.0174H60.183V52.9716H63.6029V54.1658H60.183V56.2286H64.4171V57.4229H58.9345Z" fill="#F3F3F4"/>
</svg>
